<svg xmlns="http://www.w3.org/2000/svg" width="460" height="208" viewBox="0 0 460 208">
  <g fill="none" fill-rule="evenodd">
    <path fill="#F7F5FF" d="M387.248 176.779H280.943a7.04 7.04 0 0 1-7.04-7.04V61.432a7.04 7.04 0 0 1 7.04-7.04h106.305a7.04 7.04 0 0 1 7.04 7.04v108.305a7.04 7.04 0 0 1-7.04 7.04z"></path>
    <path fill="#5528ff" d="M281 56c-3.523 0-6 2.477-6 6v107c0 3.522 2.477 6 6 6h105c3.523 0 6-2.478 6-6V62c0-3.523-2.477-6-6-6H281zm105 122H281c-5.181 0-9-3.82-9-9V62c0-5.18 3.819-9 9-9h105c5.181 0 9 3.82 9 9v107c0 5.18-3.819 9-9 9z"></path>
    <path fill="#F7F5FF" d="M288.429 164.29h93.333v-24.72h-93.333z"></path>
    <path fill="#5528ff" d="M290 163h90v-22h-90v22zm-3 3h96v-28h-96v28z"></path>
    <path fill="#B6A2FF" d="M298.321 154.93h19.667v-6h-19.667zM361.76 151.497a6.229 6.229 0 1 0 12.457-.001 6.229 6.229 0 0 0-12.457.001"></path>
    <path fill="#5528ff" d="M371.42 151.497a3.433 3.433 0 1 1-6.865 0 3.433 3.433 0 0 1 6.866 0"></path>
    <path fill="#F7F5FF" d="M363.9 128.326h-75.472v-24.72h93.334v24.72z"></path>
    <path fill="#5528ff" d="M290 127h90v-22h-90v22zm-3 3h96v-28h-96v28z"></path>
    <path fill="#B6A2FF" d="M298.321 118.966h19.667v-6h-19.667zM361.76 115.533a6.229 6.229 0 1 0 12.457-.001 6.229 6.229 0 0 0-12.457.001"></path>
    <path fill="#5528ff" d="M367.988 152.05c-2.502 0-4.511-1.007-5.808-2.911-2.438-3.579-2.407-10.473.09-20.491 1.805-7.235 4.22-13.405 4.322-13.663a1.5 1.5 0 1 1 2.792 1.097c-2.656 6.756-8.682 25.56-4.724 31.368.744 1.092 1.8 1.6 3.328 1.6a1.5 1.5 0 1 1 0 3"></path>
    <path fill="#5528ff" d="M371.42 115.533a3.433 3.433 0 1 1-6.865 0 3.433 3.433 0 0 1 6.866 0"></path>
    <path fill="#F7F5FF" d="M288.429 92.362h93.333V67.643h-93.333z"></path>
    <path fill="#5528ff" d="M290 91h90V69h-90v22zm-3 3h96V66h-96v28z"></path>
    <path fill="#B6A2FF" d="M379.644 187.467h-10.646a2.01 2.01 0 0 1-2.01-2.01v-8.678h14.666v8.678c0 1.111-.9 2.01-2.01 2.01"></path>
    <path fill="#5528ff" d="M368 178v7c0 .763.236 1 1 1h10c.764 0 1-.237 1-1v-7h-12zm11 11h-10c-2.395 0-4-1.61-4-4v-10h18v10c0 2.39-1.605 4-4 4zM298.084 187.467H287.44a2.01 2.01 0 0 1-2.01-2.01v-8.678h14.666v8.678c0 1.111-.9 2.01-2.01 2.01"></path>
    <path fill="#5528ff" d="M286.928 178.279v7.179a.51.51 0 0 0 .51.508h10.646a.51.51 0 0 0 .511-.508v-7.18h-11.667zm11.156 10.688h-10.646a3.514 3.514 0 0 1-3.51-3.51V175.28h17.667v10.179a3.514 3.514 0 0 1-3.51 3.508z"></path>
    <path fill="#B6A2FF" d="M298.321 83.002h19.667v-6h-19.667zM322.821 83.002h6v-6h-6zM322.821 118.966h6v-6h-6zM322.821 154.93h6v-6h-6zM361.76 79.57a6.229 6.229 0 1 0 12.457-.002 6.229 6.229 0 0 0-12.457.002"></path>
    <path fill="#5528ff" d="M367.988 116.086c-2.502 0-4.511-1.007-5.808-2.91-2.438-3.58-2.407-10.474.09-20.492 1.805-7.235 4.22-13.405 4.322-13.663a1.5 1.5 0 1 1 2.792 1.097c-2.656 6.756-8.682 25.56-4.724 31.368.744 1.092 1.8 1.6 3.328 1.6a1.5 1.5 0 1 1 0 3"></path>
    <path fill="#5528ff" d="M371.42 79.57a3.433 3.433 0 1 1-6.865 0 3.433 3.433 0 0 1 6.866 0"></path>
    <path fill="#DED6FF" d="M72.541 161.43V31.784c0-6.232 5.052-11.283 11.283-11.283H287.77c6.231 0 11.283 5.05 11.283 11.283V161.43c0 6.23-5.052 11.282-11.282 11.282H83.822c-6.23 0-11.282-5.051-11.282-11.282"></path>
    <path fill="#5528ff" d="M84 22c-5.602 0-10 4.383-10 10v129c0 5.617 4.398 10 10 10h204c5.602 0 10-4.383 10-10V32c0-5.617-4.398-10-10-10H84zm204 152H84c-7.254 0-13-5.726-13-13V32c0-7.274 5.746-13 13-13h204c7.255 0 13 5.726 13 13v129c0 7.274-5.745 13-13 13z"></path>
    <path fill="#5528ff" d="M97.163 36.98a4.51 4.51 0 1 1-9.021 0 4.51 4.51 0 0 1 9.02 0M109.444 36.98a4.51 4.51 0 1 1-9.02 0 4.51 4.51 0 0 1 9.02 0M121.726 36.98a4.51 4.51 0 1 1-9.02 0 4.51 4.51 0 0 1 9.02 0M158.758 74.531h62.177v-3h-62.177z"></path>
    <path fill="#F7F5FF" d="M83.167 148.69h205.261V54.393H83.167z"></path>
    <path fill="#DED6FF" d="M297.444 187.467H74.151a7.65 7.65 0 0 1-7.65-7.65v-2.797a7.65 7.65 0 0 1 7.65-7.651h223.293a7.65 7.65 0 0 1 7.651 7.651v2.797a7.65 7.65 0 0 1-7.65 7.65"></path>
    <path fill="#5528ff" d="M74 171c-3.236 0-6 2.741-6 6v3c0 3.259 2.764 6 6 6h224c3.236 0 6-2.741 6-6v-3c0-3.259-2.764-6-6-6H74zm224 18H74c-4.888 0-9-4.086-9-9v-3c0-4.915 4.112-9 9-9h224c4.888 0 9 4.085 9 9v3c0 4.914-4.112 9-9 9z"></path>
    <path fill="#B6A2FF" d="M162 171v1c0 3.22 2.809 6 6 6h35c3.19 0 6-2.78 6-6v-1h-47z"></path>
    <path fill="#5528ff" d="M88.143 77.29h78.839v-3H88.143z"></path>
    <path fill="#B6A2FF" d="M97.34 86.832h88.036v-3H97.34zM97.34 115.457h88.036v-3H97.34zM106.537 96.374h42.97v-3h-42.97zM158.758 96.374h42.971v-3h-42.971z"></path>
    <path fill="#5528ff" d="M106.537 105.916h42.97v-3h-42.97zM106.537 124.999h42.97v-3h-42.97z"></path>
  </g>
</svg>
