<svg width="120px" height="36px" viewBox="0 0 120 36" xmlns="http://www.w3.org/2000/svg" xmlns:xlink="http://www.w3.org/1999/xlink">
  <g id="mamon" stroke="none" stroke-width="1" fill="#5528ff" fill-rule="evenodd">
    <path d="M4,0 L116,0 C118.209139,-4.05812251e-16 120,1.790861 120,4 L120,32 C120,34.209139 118.209139,36 116,36 L4,36 C1.790861,36 2.705415e-16,34.209139 0,32 L0,4 C-2.705415e-16,1.790861 1.790861,4.05812251e-16 4,0 Z M19.92,24 L19.92,16.44 C20.6720038,15.4799952 21.5759947,15 22.632,15 C23.3680037,15 23.9519978,15.2399976 24.384,15.72 C24.7680019,16.1520022 24.96,16.8159955 24.96,17.712 L24.96,24 L28.08,24 L28.08,17.832 C28.08,17.4799982 28.0480003,17.0480026 27.984,16.536 C28.2400013,16.1519981 28.6199975,15.8000016 29.124,15.48 C29.6280025,15.1599984 30.183997,15 30.792,15 C31.5280037,15 32.1119978,15.2399976 32.544,15.72 C32.9280019,16.1520022 33.12,16.8159955 33.12,17.712 L33.12,24 L36.24,24 L36.24,17.832 C36.24,16.231992 35.8480039,14.9520048 35.064,13.992 C34.5999977,13.4159971 34.0040036,12.9600017 33.276,12.624 C32.5479964,12.2879983 31.784004,12.12 30.984,12.12 C29.383992,12.12 28.0080058,12.7279939 26.856,13.944 C25.847995,12.7279939 24.544008,12.12 22.944,12.12 C21.7279939,12.12 20.6800044,12.5119961 19.8,13.296 L19.8,12.36 L16.8,12.36 L16.8,24 L19.92,24 Z M49.76,12.36 L46.76,12.36 L46.76,13.296 C45.7999952,12.5119961 44.6640066,12.12 43.352,12.12 C41.7679921,12.12 40.4200056,12.7039942 39.308,13.872 C38.1959944,15.0400058 37.64,16.4799914 37.64,18.192 C37.64,19.7600078 38.135995,21.1199942 39.128,22.272 C40.2640057,23.5840066 41.727991,24.24 43.52,24.24 C44.7520062,24.24 45.8319954,23.8480039 46.76,23.064 L46.76,24 L49.76,24 L49.76,12.36 Z M46.64,19.92 C45.9679966,20.8800048 45.032006,21.36 43.832,21.36 C42.9519956,21.36 42.2200029,21.060003 41.636,20.46 C41.0519971,19.859997 40.76,19.1040046 40.76,18.192 C40.76,17.3279957 41.0399972,16.5800032 41.6,15.948 C42.1600028,15.3159968 42.8799956,15 43.76,15 C44.960006,15 45.9199964,15.4799952 46.64,16.44 L46.64,19.92 Z M55.48,24 L55.48,16.44 C56.2320038,15.4799952 57.1359947,15 58.192,15 C58.9280037,15 59.5119978,15.2399976 59.944,15.72 C60.3280019,16.1520022 60.52,16.8159955 60.52,17.712 L60.52,24 L63.64,24 L63.64,17.832 C63.64,17.4799982 63.6080003,17.0480026 63.544,16.536 C63.8000013,16.1519981 64.1799975,15.8000016 64.684,15.48 C65.1880025,15.1599984 65.743997,15 66.352,15 C67.0880037,15 67.6719978,15.2399976 68.104,15.72 C68.4880019,16.1520022 68.68,16.8159955 68.68,17.712 L68.68,24 L71.8,24 L71.8,17.832 C71.8,16.231992 71.4080039,14.9520048 70.624,13.992 C70.1599977,13.4159971 69.5640036,12.9600017 68.836,12.624 C68.1079964,12.2879983 67.344004,12.12 66.544,12.12 C64.943992,12.12 63.5680058,12.7279939 62.416,13.944 C61.407995,12.7279939 60.104008,12.12 58.504,12.12 C57.2879939,12.12 56.2400044,12.5119961 55.36,13.296 L55.36,12.36 L52.36,12.36 L52.36,24 L55.48,24 Z M74.976,22.488 C76.1600059,23.6560058 77.6319912,24.24 79.392,24.24 C81.1520088,24.24 82.6239941,23.6560058 83.808,22.488 C84.9920059,21.3199942 85.584,19.8880085 85.584,18.192 C85.584,16.4959915 84.9920059,15.0600059 83.808,13.884 C82.6239941,12.7079941 81.1520088,12.12 79.392,12.12 C77.6319912,12.12 76.1600059,12.7079941 74.976,13.884 C73.7919941,15.0600059 73.2,16.4959915 73.2,18.192 C73.2,19.8880085 73.7919941,21.3199942 74.976,22.488 Z M77.184,15.936 C77.7600029,15.3119969 78.4959955,15 79.392,15 C80.2880045,15 81.0239971,15.3079969 81.6,15.924 C82.1760029,16.5400031 82.464,17.2959955 82.464,18.192 C82.464,19.0880045 82.1760029,19.839997 81.6,20.448 C81.0239971,21.056003 80.2880045,21.36 79.392,21.36 C78.4959955,21.36 77.7600029,21.056003 77.184,20.448 C76.6079971,19.839997 76.32,19.0880045 76.32,18.192 C76.32,17.2959955 76.6079971,16.544003 77.184,15.936 Z M90.344,24 L90.344,16.44 C90.6000013,16.0719982 90.9879974,15.7400015 91.508,15.444 C92.0280026,15.1479985 92.583997,15 93.176,15 C93.9120037,15 94.4959978,15.2159978 94.928,15.648 C95.3920023,16.1120023 95.624,16.839995 95.624,17.832 L95.624,24 L98.744,24 L98.744,18.072 C98.744,16.2959911 98.344004,14.9360047 97.544,13.992 C96.5039948,12.7439938 95.1600082,12.12 93.512,12.12 C92.2799938,12.12 91.1840048,12.5119961 90.224,13.296 L90.224,12.36 L87.224,12.36 L87.224,24 L90.344,24 Z M102.544,23.64 C102.944002,24.040002 103.439997,24.24 104.032,24.24 C104.624003,24.24 105.123998,24.040002 105.532,23.64 C105.940002,23.239998 106.144,22.744003 106.144,22.152 C106.144,21.559997 105.940002,21.060002 105.532,20.652 C105.123998,20.243998 104.624003,20.04 104.032,20.04 C103.439997,20.04 102.944002,20.243998 102.544,20.652 C102.143998,21.060002 101.944,21.559997 101.944,22.152 C101.944,22.744003 102.143998,23.239998 102.544,23.64 Z"></path>
  </g>
</svg>
