<svg xmlns="http://www.w3.org/2000/svg" width="460" height="208" viewBox="0 0 460 208">
  <g fill="none" fill-rule="evenodd">
    <path fill="#B6A2FF" d="M68.782 166.735c-6.22 0-11.282-5.062-11.282-11.282V29.783c0-6.221 5.061-11.282 11.282-11.282h195.904c6.221 0 11.283 5.06 11.283 11.282v125.67c0 6.22-5.062 11.282-11.283 11.282H68.782z"></path>
    <path fill="#5528ff" d="M69 20.02c-5.622 0-10 4.41-10 10.066v125.828c0 5.656 4.378 10.066 10 10.066h195c5.62 0 10-4.41 10-10.066V30.086c0-5.655-4.38-10.066-10-10.066H69zM264 169H69c-7.278 0-13-5.763-13-13.086V30.086C56 22.763 61.722 17 69 17h195c7.278 0 13 5.763 13 13.086v125.828c0 7.323-5.722 13.086-13 13.086z"></path>
    <path fill="#DED6FF" d="M125.685 123.578h127.626v-82.42H125.685v82.42zM264.103 24.5H69.366a5.866 5.866 0 0 0-5.866 5.867v103.501a5.866 5.866 0 0 0 5.866 5.867h194.737a5.866 5.866 0 0 0 5.866-5.867V30.367a5.866 5.866 0 0 0-5.866-5.867z"></path>
    <path fill="#F7F5FF" d="M111.118 64.596H79.38a6.833 6.833 0 0 1 0-13.667h31.737a6.834 6.834 0 0 1 0 13.667"></path>
    <path fill="#5528ff" d="M81.247 37.29a4.35 4.35 0 1 1-8.7 0 4.35 4.35 0 0 1 8.7 0M93.092 37.29a4.35 4.35 0 1 1-8.7 0 4.35 4.35 0 0 1 8.7 0M104.938 37.29a4.35 4.35 0 1 1-8.7 0 4.35 4.35 0 0 1 8.7 0M140.655 59.093h59.969v-3h-59.969z"></path>
    <path fill="#B6A2FF" d="M144.234 190.054h45v-22.319h-45z"></path>
    <path fill="#5528ff" d="M146 188h42v-19h-42v19zm-3 3h48v-25h-48v25z"></path>
    <path fill="#5528ff" d="M127 191h80v-3h-80z"></path>
    <path fill="#F7F5FF" d="M173.284 153.721a6.55 6.55 0 1 1-6.549-6.55 6.55 6.55 0 0 1 6.549 6.55M125.685 123.578h127.626v-82.42H125.685z"></path>
    <path fill="#DED6FF" d="M349.191 105.174s30.642-26.453 53.572 16.286c0 0-18.48 10.776-53.572-16.286"></path>
    <path fill="#F7F5FF" d="M303.89 141.75l8.64 48.304h40.732l8.95-48.263c.738-3.97-2.31-7.636-6.348-7.636h-45.617c-4.022 0-7.065 3.636-6.357 7.595"></path>
    <path fill="#5528ff" d="M314 189h38l9-47c.187-1.582-.203-3.071-1-4-1.11-1.348-2.51-2-4-2h-46c-1.484 0-2.882.648-4 2-.786.91-1.183 2.39-1 4l9 47zm41 3h-44l-9-50c-.293-1.955.344-4.33 2-6 1.398-1.96 3.64-3 6-3h46c2.371 0 4.618 1.047 6 3 1.674 1.701 2.3 4.09 2 6l-9 50z"></path>
    <path fill="#5528ff" d="M350.443 104.236c19.677 14.55 47.21 20.807 50.055 18.694-.114-4.308-5.999-24.376-32.97-24.376-7.063 0-12.662 2.278-17.085 5.682m-15.9 30.119l-2.975-.398c.052-.384 5.5-38.403 35.96-38.403 27.446 0 35.972 20.158 35.972 27.5 0 1.09-.62 2.027-1.703 2.569-6.115 3.053-34.856-5.297-53.504-19.247l.725-.97c-11.813 10.32-14.442 28.692-14.476 28.949"></path>
    <path fill="#DED6FF" d="M307.875 81.429s-36.821-24.041-50.765 23.625c0 0 19.807 8.084 50.765-23.625"></path>
    <path fill="#5528ff" d="M259.616 104.778c3.973 1.569 34.65-8.702 47.837-23.993-4.433-2.646-9.672-4.231-15.87-4.231-25.93 0-31.762 22.949-31.967 28.224zm71.94 29.438c-.019-.46-1.794-37.148-21.588-51.756-12.932 15.278-44.934 27.479-51.472 25.084-1.198-.438-1.886-1.345-1.886-2.49 0-5.181 6.08-31.5 34.972-31.5 16.663 0 29.388 10.557 36.8 30.53 5.502 14.828 6.147 29.398 6.172 30.01l-2.998.122z"></path>
    <path fill="#DED6FF" d="M352.638 57.859s38.612-20.055 34.965 26.647c0 0-17.36 3.548-34.965-26.647"></path>
    <path fill="#5528ff" d="M373.838 78.998c6.39 3.925 10.893 5.194 12.272 5.113.016-.561.061-1.238.112-2 .342-5.06.977-14.477-4.62-20.463-3.499-3.743-9.04-5.642-16.47-5.642-3.496 0-6.715.59-9.639 1.767 1.151 8.029 10.133 16.18 18.345 21.225zm-41.67 46.774c-.012-.106-1.164-12.81-.256-25.632 1.232-17.374 5.453-30.197 12.545-38.114 5.362-5.984 12.318-9.02 20.674-9.02 8.294 0 14.573 2.218 18.662 6.593 6.487 6.938 5.795 17.2 5.423 22.715-.06.896-.113 1.669-.113 2.192 0 1.14-.758 2.502-2.896 2.589-6.527.299-30.489-13.037-33.522-27.963-2.195 1.257-4.196 2.89-5.993 4.896-15.923 17.772-11.588 61.002-11.542 61.416l-2.983.328z"></path>
  </g>
</svg>
