<?xml version="1.0" encoding="UTF-8"?>
<svg width="96px" height="63px" viewBox="0 0 96 63" version="1.1" xmlns="http://www.w3.org/2000/svg" xmlns:xlink="http://www.w3.org/1999/xlink">
    <!-- Generator: Sketch 50.2 (55047) - http://www.bohemiancoding.com/sketch -->
    <title>icon-back-end</title>
    <desc>Created with Sketch.</desc>
    <defs></defs>
    <g id="Page-1" stroke="none" stroke-width="1" fill="none" fill-rule="evenodd">
        <g id="icon-back-end" transform="translate(-16.000000, -7.000000)">
            <g id="settings" transform="translate(42.897224, 42.897224) rotate(39.000000) translate(-42.897224, -42.897224) translate(12.397224, 12.397224)" fill="#C8B9FF" fill-rule="nonzero">
                <path d="M3.86580383,21.278778 C4.17532586,22.3401866 4.60486663,23.3636878 5.14810938,24.3240098 L3.60049923,26.2762434 C3.09515714,26.9143522 3.15200812,27.824131 3.72051797,28.3990606 L6.3861975,31.0652179 C6.96102413,31.6401475 7.87063989,31.6906276 8.50863428,31.1851949 L10.4478846,29.6499432 C11.4459352,30.2249361 12.5071536,30.6734444 13.6125894,30.9893398 L13.9031611,33.4849135 C13.9979127,34.2936058 14.6801246,34.900125 15.4886719,34.900125 L19.2597873,34.900125 C20.0683346,34.900125 20.7505464,34.2935426 20.8452981,33.4849135 L21.1232362,31.0777905 C22.3107901,30.768213 23.4478098,30.3070057 24.515345,29.7068044 L26.3914275,31.1915128 C27.0294219,31.6969455 27.9390377,31.6400843 28.5138643,31.0714726 L31.1795438,28.4053153 C31.7543705,27.8303857 31.8049047,26.9206069 31.2995626,26.2824982 L29.8403873,24.4313511 C30.4467978,23.3825151 30.920556,22.2643085 31.2363948,21.0954955 L33.4851671,20.8364613 C34.2937776,20.7416927 34.900125,20.0593586 34.900125,19.2506663 L34.900125,15.4788751 C34.900125,14.6701829 34.2937145,13.9878488 33.4851671,13.8930802 L31.2679787,13.6340459 C30.9647103,12.4778687 30.5099656,11.3722348 29.9288853,10.3360978 L31.293309,8.61130889 C31.7986511,7.97320017 31.7418001,7.06342138 31.1732902,6.48849174 L28.5139275,3.82865238 C27.9391008,3.25372273 27.0294851,3.20317946 26.3914907,3.70861212 L24.717545,5.03537285 C23.6310595,4.39726412 22.4687095,3.91078518 21.2496349,3.58225396 L20.9969639,1.41521144 C20.9022122,0.606519188 20.2200004,0 19.4114531,0 L15.6403377,0 C14.8317904,0 14.1495785,0.606519188 14.0548269,1.41521144 L13.8021559,3.58225396 C12.5514342,3.91710309 11.3575635,4.42253575 10.2458109,5.08591611 L8.50869745,3.70861212 C7.87070306,3.20317946 6.9610873,3.26004064 6.38626067,3.82865238 L3.72058114,6.49480964 C3.14575451,7.06973929 3.09522031,7.97951807 3.6005624,8.6176268 L5.05342091,10.4561381 C4.4722775,11.5049109 4.03010317,12.6231806 3.73953147,13.7856757 L1.41495785,14.0510279 C0.606410509,14.1457965 0,14.8281306 0,15.6368228 L0,19.408614 C0,20.2173063 0.606410509,20.8996404 1.41495785,20.994409 L3.86580383,21.278778 Z M17.5289906,11.0753563 C20.9653168,11.0753563 23.7636486,13.8741896 23.7636486,17.3111317 C23.7636486,20.7480738 20.9653168,23.5469071 17.5289906,23.5469071 C14.0927276,23.5469071 11.2943326,20.7480738 11.2943326,17.3111317 C11.2943326,13.8741896 14.0926644,11.0753563 17.5289906,11.0753563 Z" id="Shape"></path>
                <path d="M56.003646,23.5741787 L53.9135514,21.8115343 C53.2700013,21.2681627 52.3210984,21.2946686 51.7107244,21.8711726 L50.556196,22.9512893 C49.5808848,22.480809 48.5457904,22.1494849 47.4774535,21.9573169 L47.1524603,20.366961 C46.9865798,19.5452771 46.2235294,18.9753995 45.3873589,19.0416644 L42.6602831,19.2735913 C41.8242453,19.3464826 41.1673584,20.0290103 41.1408175,20.8705737 L41.0878021,22.4874355 C40.0393708,22.8651451 39.0507229,23.3820107 38.1483329,24.0314061 L36.7682733,23.1169514 C36.0648072,22.6530976 35.1293074,22.7856273 34.5852856,23.4283961 L32.8203169,25.5289912 C32.2761624,26.1717601 32.3027033,27.1193471 32.8799011,27.7289836 L34.0875777,29.014455 C33.6694924,29.9554156 33.3709075,30.9428278 33.1984581,31.9566134 L31.4733007,32.307817 C30.6505333,32.4734791 30.0799043,33.2355247 30.1462565,34.0705278 L30.3784892,36.7940123 C30.4514766,37.6289492 31.1349044,38.284971 31.9775775,38.3114769 L33.8420745,38.371049 C34.1806035,39.2589977 34.6250969,40.1006273 35.1624835,40.8891125 L34.1208202,42.459589 C33.6563547,43.1619962 33.7890591,44.0963303 34.4326092,44.6397019 L36.5227038,46.4023464 C37.1663865,46.945718 38.1151568,46.919212 38.7256635,46.342708 L40.092519,45.0637968 C40.9882738,45.4812652 41.9304088,45.7927099 42.899151,45.9782515 L43.277425,47.8469197 C43.4433055,48.6686036 44.2063559,49.2384811 45.0423937,49.1722163 L47.7694695,48.9402894 C48.6055074,48.867398 49.2623942,48.1849366 49.2889351,47.343307 L49.3486521,45.5143314 C50.3439352,45.1631278 51.2860703,44.686021 52.1552842,44.0963303 L53.6615457,45.0903027 C54.3648791,45.5541565 55.3003789,45.4216269 55.8445334,44.778858 L57.6095021,42.6915159 C58.1535239,42.048747 58.126983,41.10116 57.5497851,40.4915235 L56.3354734,39.2060521 C56.7800995,38.2650915 57.1052917,37.2711191 57.2909452,36.2505744 L58.9497504,35.9126238 C59.7725178,35.7469617 60.3431468,34.9849162 60.2767946,34.1499131 L60.0445618,31.4264285 C59.9715744,30.5914917 59.2881467,29.9354699 58.4454736,29.9089639 L56.7800332,29.8559521 C56.4349353,28.8884856 55.9704699,27.9740972 55.393272,27.1258411 L56.3022309,25.7607856 C56.7800332,25.0585109 56.6473287,24.1175503 56.003646,23.5741787 Z M45.7258215,39.3186361 C42.7797834,39.5705087 40.1786441,37.3770765 39.9332073,34.4349844 C39.6810026,31.4928259 41.8773934,28.8951783 44.8232988,28.6499984 C47.7693368,28.3981921 50.3704761,30.5916242 50.6159129,33.5337164 C50.8681177,36.4759411 48.6717269,39.0735224 45.7258215,39.3186361 Z" id="Shape"></path>
                <path d="M15.839794,44.9304101 C14.9726395,45.0199022 14.3050681,45.7495383 14.298186,46.6238763 L14.2775394,48.3655305 C14.2637751,49.2397996 14.9106999,49.9832725 15.7778544,50.0934855 L17.0579397,50.2586329 C17.2712872,51.0365947 17.5741031,51.7800676 17.9663873,52.4822365 L17.1405258,53.5010698 C16.5899515,54.1825179 16.6312446,55.1601159 17.2437585,55.7865607 L18.4619042,57.0325663 C19.0744181,57.6590111 20.0516875,57.7278512 20.7467876,57.1908985 L21.7721634,56.3992375 C22.4947922,56.826046 23.2587829,57.1634313 24.0570468,57.3974188 L24.1946904,58.7191484 C24.2841587,59.5865335 25.0136697,60.2542824 25.8877064,60.2611664 L27.6289665,60.2818184 C28.5029344,60.2955864 29.2462785,59.6484896 29.3563934,58.7811045 L29.5146835,57.5282149 C30.3819069,57.3147418 31.2077683,56.9912622 31.9922679,56.5644537 L32.955773,57.3423467 C33.6371087,57.8930674 34.6144469,57.8517633 35.2407252,57.2390866 L36.4863996,56.020617 C37.1126778,55.4080091 37.1814996,54.430411 36.6447585,53.7351261 L35.9082277,52.7781801 C36.3624515,52.0209391 36.7135115,51.2155101 36.9543877,50.368777 L38.0968294,50.2517489 C38.963984,50.1622568 39.6314865,49.4325518 39.6384375,48.5582827 L39.6590152,46.8165597 C39.6728484,45.9423594 39.0259236,45.1988176 38.158769,45.0886735 L37.0437872,44.9441093 C36.8304397,44.1042602 36.5139283,43.2919472 36.1009975,42.5347063 L36.7960976,41.6810892 C37.3466719,40.9995723 37.3053788,40.0220431 36.6928649,39.3955983 L35.4747881,38.1495927 C34.8622742,37.5230791 33.8848671,37.454239 33.1898359,37.9912605 L32.3570234,38.6314733 C31.5725238,38.1564767 30.7328292,37.7916243 29.8519791,37.5437999 L29.7417954,36.4630106 C29.6523271,35.5955566 28.9228849,34.9278766 28.0487794,34.9209926 L26.3075881,34.9003406 C25.4335514,34.8865726 24.6902761,35.5336694 24.5800924,36.4010545 L24.4424488,37.4750287 C23.53407,37.7090162 22.6600333,38.0670534 21.8479362,38.5350972 L20.9876638,37.8329283 C20.3063281,37.2822076 19.3289899,37.3235805 18.7027116,37.9361884 L17.4501551,39.1616108 C16.8238768,39.7742188 16.755055,40.7518168 17.291865,41.4470329 L18.0282581,42.3970949 C17.601563,43.1543359 17.2643362,43.9596961 17.0441065,44.806498 L15.839794,44.9304101 Z M27.0783922,42.9615148 C29.5766231,42.9890508 31.5792684,45.0474383 31.5518085,47.5463334 C31.5242797,50.0452286 29.4664394,52.0484063 26.9682085,52.0209391 C24.4699776,51.9934031 22.4673323,49.9350845 22.4947922,47.4361205 C22.5223897,44.9372941 24.5801612,42.9340476 27.0783922,42.9615148 Z" id="Shape"></path>
            </g>
            <g id="Server" transform="translate(83.000000, 11.000000)">
                <rect id="Rectangle" stroke="#7E5EFF" stroke-width="3" fill="#F5F3FF" x="1.5" y="1.5" width="26" height="50" rx="4"></rect>
                <path d="M6.5,9.5 L22.5312195,9.5" id="Line" stroke="#C1B2FF" stroke-width="2" stroke-linecap="square"></path>
                <path d="M6.5,17.5 L22.5312195,17.5" id="Line" stroke="#C1B2FF" stroke-width="2" stroke-linecap="square"></path>
                <path d="M6.5,25.5 L22.5312195,25.5" id="Line" stroke="#C1B2FF" stroke-width="2" stroke-linecap="square"></path>
                <path d="M6.5,33.5 L22.5312195,33.5" id="Line" stroke="#C1B2FF" stroke-width="2" stroke-linecap="square"></path>
                <circle id="Oval" fill="#8D70FF" cx="16.5" cy="41.5" r="1.5"></circle>
                <circle id="Oval" fill="#8D70FF" cx="22.5" cy="41.5" r="1.5"></circle>
            </g>
            <g id="mac" transform="translate(29.000000, 21.000000)">
                <g id="Group">
                    <g id="a-link" transform="translate(8.064935, 1.791667)" fill="#FFFFFF" fill-rule="nonzero">
                        <path d="M52.8701299,34.6285919 L52.8701299,0.89079136 C52.8701299,0.398820876 52.4749625,0 51.9746532,0 L0.895476588,0 C0.400918523,0 0,0.400870728 0,0.89079136 L0,34.6285919 L52.8701299,34.6285919 Z" id="a"></path>
                    </g>
                    <path d="M62.2792208,37.7640086 L6.72077922,37.7640086 L6.72077922,2.68245803 C6.72077922,1.44868553 7.7252152,0.447916667 8.96041165,0.447916667 L60.0395883,0.447916667 C61.2801183,0.447916667 62.2792208,1.44622045 62.2792208,2.68245803 L62.2792208,37.7640086 Z" id="Shape" stroke="#7F5EFF" stroke-width="3"></path>
                    <path d="M58.2467532,33.1458333 L58.2467532,4.70991738 C58.2467532,4.58247728 58.1112188,4.47916667 57.9450448,4.47916667 L11.3017084,4.47916667 C11.1350794,4.47916667 11,4.58296816 11,4.70991738 L11,33.1458333 L58.2467532,33.1458333 Z" id="Shape" fill="#F5F3FF" fill-rule="nonzero"></path>
                    <g opacity="0.5" transform="translate(13.000000, 7.166667)" fill="#8D70FF" fill-rule="nonzero" id="Rectangle-path">
                        <rect x="0" y="0" width="36.1996192" height="1.79166667" rx="0.895833333"></rect>
                        <rect x="0" y="4.47916667" width="24.8253972" height="1.79166667" rx="0.895833333"></rect>
                        <rect x="28.3729599" y="4.47916667" width="12.3516117" height="1.79166667" rx="0.895833333"></rect>
                        <rect x="0" y="8.95833333" width="10.6396714" height="1.79166667" rx="0.895833333"></rect>
                        <rect x="14.1857258" y="8.95833333" width="12.0665397" height="1.79166667" rx="0.895833333"></rect>
                        <rect x="28.7802056" y="8.95833333" width="5.91109615" height="1.79166667" rx="0.895833333"></rect>
                        <g transform="translate(0.000000, 13.437500)">
                            <rect x="0" y="0" width="43.7412065" height="1.79166667" rx="0.895833333"></rect>
                            <rect x="0" y="4.47916667" width="18.7921273" height="1.79166667" rx="0.895833333"></rect>
                            <rect x="0" y="8.95833333" width="11.25054" height="1.79166667" rx="0.895833333"></rect>
                            <rect x="22.33969" y="4.47916667" width="15.3682467" height="1.79166667" rx="0.895833333"></rect>
                        </g>
                    </g>
                    <g transform="translate(0.000000, 35.833333)">
                        <g id="b-link" fill="#FFFFFF" fill-rule="nonzero">
                            <path d="M0,0 L69,0 L69,3.58333333 C69,5.56235369 67.3952025,7.16666667 65.4155844,7.16666667 L3.58441558,7.16666667 C1.60479752,7.16666667 2.42433292e-16,5.56235369 0,3.58333333 L0,0 Z" id="b"></path>
                        </g>
                        <path d="M1.34415584,1.34375 L1.34415584,3.58333333 C1.34415584,4.82022108 2.3471543,5.82291667 3.58441558,5.82291667 L65.4155844,5.82291667 C66.6528457,5.82291667 67.6558442,4.82022108 67.6558442,3.58333333 L67.6558442,1.34375 L1.34415584,1.34375 Z" id="Shape" stroke="#7F5EFF" stroke-width="3"></path>
                    </g>
                </g>
            </g>
        </g>
    </g>
</svg>