<svg xmlns="http://www.w3.org/2000/svg" width="68" height="64" viewBox="0 0 68 64" xmlns:xlink="http://www.w3.org/1999/xlink">
  <defs>
    <path id="a" d="M0,1.99876896 C0,1.44716409 0.447928402,1 1.00443217,1 L26.4462891,1 L38.9997559,13.623291 L38.9999935,50.0002633 C38.9999971,50.5524026 38.5620117,51 37.9967579,51 L1.00324215,51 C0.44916681,51 0,50.5524743 0,50.001231 L0,1.99876896 Z"/>
    <path id="b" d="M8,11.0998154 C8,11.0446889 8.05207062,11 8.09981537,11 L10.9001846,11 C10.9553111,11 11,11.0520706 11,11.0998154 L11,13.9001846 C11,13.9553111 10.9479294,14 10.9001846,14 L8.09981537,14 C8.04468886,14 8,13.9479294 8,13.9001846 L8,11.0998154 Z M15.5,1.59981537 C15.5,1.54468886 15.5520706,1.5 15.5998154,1.5 L18.4001846,1.5 C18.4553111,1.5 18.5,1.55207062 18.5,1.59981537 L18.5,4.40018463 C18.5,4.45531114 18.4479294,4.5 18.4001846,4.5 L15.5998154,4.5 C15.5446889,4.5 15.5,4.44792938 15.5,4.40018463 L15.5,1.59981537 Z M24,11.0998154 C24,11.0446889 24.0520706,11 24.0998154,11 L26.9001846,11 C26.9553111,11 27,11.0520706 27,11.0998154 L27,13.9001846 C27,13.9553111 26.9479294,14 26.9001846,14 L24.0998154,14 C24.0446889,14 24,13.9479294 24,13.9001846 L24,11.0998154 Z"/>
  </defs>
  <g fill="none" fill-rule="evenodd" transform="translate(-4)">
    <g fill="#c8b9ff">
      <circle cx="62.5" cy="32.5" r="6.5"/>
      <polygon points="62.051 57.158 56.112 60.281 57.246 53.667 52.44 48.983 59.082 48.018 62.051 42 65.021 48.018 71.662 48.983 66.857 53.667 67.991 60.281" transform="rotate(22 62.051 51.14)"/>
      <rect width="13" height="13" x="7" y="46" transform="rotate(12 13.5 52.5)"/>
      <rect width="13" height="13" x="30" rx="4"/>
      <polygon points="17 33 2 33 9.5 20" transform="rotate(-18 9.5 26.5)"/>
    </g>
    <g transform="translate(16 10)">
      <use fill="#FFFFFF" xlink:href="#a"/>
      <path stroke="#7f5eff" stroke-width="3" d="M-1.5,1.99876896 C-1.5,0.616634969 -0.378401321,-0.5 1.00443217,-0.5 L27.0700477,-0.5 L40.4997518,13.0044021 L40.4999935,50.0002535 C40.5000025,51.3832852 39.3880043,52.5 37.9967579,52.5 L1.00324215,52.5 C-0.37772164,52.5 -1.5,51.3824461 -1.5,50.001231 L-1.5,1.99876896 Z"/>
      <path fill="#EFF9FF" stroke="#7f5eff" stroke-width="3" d="M27.3539406,0.118068094 C27.1583972,-0.0774572806 26.99936,-0.00213323928 26.9987804,0.259546059 L26.9727389,12.0170387 C26.9727389,12.0170387 27.0376682,13.0920553 27.9356713,13 C28.8336743,13.0920553 39.7453174,13.0037757 39.7453174,13.0037757 C40.0168996,13.0016904 40.0791792,12.8421332 39.8829979,12.64597 L27.3539406,0.118068094 Z"/>
    </g>
    <g transform="rotate(45 -12.127 44.728)">
      <path fill="#E6E9F2" d="M4.3219176,2.34553654 C4.3219176,1.79382807 4.75989214,1.34558345 5.32667197,1.34429385 L28.5506576,1.29145211 C29.1055681,1.29018952 29.555412,1.73182631 29.555412,2.28812254 L29.555412,3.29020942 C29.555412,3.8419179 29.1174374,4.29016251 28.5506576,4.29145211 L5.32667197,4.34429385 C4.77176145,4.34555644 4.3219176,3.90391965 4.3219176,3.34762342 L4.3219176,2.34553654 Z"/>
      <path stroke="#c8b9ff" stroke-width="3" d="M9.06879675,10.031498 C9.06879675,10.031498 8.69897015,3.01492222 16.9578098,3.01492222 C25.2166494,3.01492222 25.0504175,9.98026343 25.0504175,9.98026343"/>
      <use fill="#FFFFFF" xlink:href="#b"/>
      <path stroke="#7f5eff" stroke-width="2.5" d="M6.75,11.0998154 C6.75,10.3424458 7.3727099,9.75 8.09981537,9.75 L10.9001846,9.75 C11.6575542,9.75 12.25,10.3727099 12.25,11.0998154 L12.25,13.9001846 C12.25,14.6575542 11.6272901,15.25 10.9001846,15.25 L8.09981537,15.25 C7.3424458,15.25 6.75,14.6272901 6.75,13.9001846 L6.75,11.0998154 Z M14.25,1.59981537 C14.25,0.842445804 14.8727099,0.25 15.5998154,0.25 L18.4001846,0.25 C19.1575542,0.25 19.75,0.872709899 19.75,1.59981537 L19.75,4.40018463 C19.75,5.1575542 19.1272901,5.75 18.4001846,5.75 L15.5998154,5.75 C14.8424458,5.75 14.25,5.1272901 14.25,4.40018463 L14.25,1.59981537 Z M22.75,11.0998154 C22.75,10.3424458 23.3727099,9.75 24.0998154,9.75 L26.9001846,9.75 C27.6575542,9.75 28.25,10.3727099 28.25,11.0998154 L28.25,13.9001846 C28.25,14.6575542 27.6272901,15.25 26.9001846,15.25 L24.0998154,15.25 C23.3424458,15.25 22.75,14.6272901 22.75,13.9001846 L22.75,11.0998154 Z"/>
      <path fill="#7f5eff" d="M0.0502525317,1.29270071 C0.0502525317,0.74052228 0.493969177,0.292893219 1.05006002,0.292893219 L4.05044504,0.292893219 C4.60262347,0.292893219 5.05025253,0.736609864 5.05025253,1.29270071 L5.05025253,4.29308573 C5.05025253,4.84526416 4.60653589,5.29289322 4.05044504,5.29289322 L1.05006002,5.29289322 C0.497881593,5.29289322 0.0502525317,4.84917657 0.0502525317,4.29308573 L0.0502525317,1.29270071 Z M28.0680195,1.29270071 C28.0680195,0.74052228 28.5117361,0.292893219 29.067827,0.292893219 L32.068212,0.292893219 C32.6203904,0.292893219 33.0680195,0.736609864 33.0680195,1.29270071 L33.0680195,4.29308573 C33.0680195,4.84526416 32.6243028,5.29289322 32.068212,5.29289322 L29.067827,5.29289322 C28.5156485,5.29289322 28.0680195,4.84917657 28.0680195,4.29308573 L28.0680195,1.29270071 Z"/>
    </g>
  </g>
</svg>
