<?xml version="1.0" encoding="UTF-8"?>
<svg width="128px" height="45px" viewBox="0 0 128 45" version="1.1" xmlns="http://www.w3.org/2000/svg" xmlns:xlink="http://www.w3.org/1999/xlink">
    <!-- Generator: Sketch 50.2 (55047) - http://www.bohemiancoding.com/sketch -->
    <title>audi</title>
    <desc>Created with Sketch.</desc>
    <defs></defs>
    <g id="Page-1" stroke="none" stroke-width="1" fill="none" fill-rule="evenodd">
        <g id="audi" transform="translate(3.000000, 3.000000)" stroke="#000000" stroke-width="4.59770115">
            <path d="M19.1198849,0.0656813793 C8.36795449,0.424161502 -0.110526887,9.33470832 0.068796506,20.0876178 C0.248119899,30.8405273 9.01900475,39.4635984 19.7769134,39.4635984 C30.5348221,39.4635984 39.3057069,30.8405273 39.4850303,20.0876178 C39.6643537,9.33470832 31.1858724,0.424161502 20.4339419,0.0656813793 L19.1198849,0.0656813793 Z M46.7150828,0.0656813793 C35.9631522,0.424161502 27.4846708,9.33470832 27.6639942,20.0876178 C27.8433176,30.8405273 36.6142023,39.4635984 47.3721109,39.4635984 C58.1300196,39.4635984 66.9009046,30.8405273 67.0802279,20.0876178 C67.2595513,9.33470832 58.7810702,0.424161502 48.0291394,0.0656813793 L46.7150828,0.0656813793 Z M74.3102803,0.0656813793 C63.55835,0.424161502 55.0798684,9.33470832 55.2591918,20.0876178 C55.4385151,30.8405273 64.2094001,39.4635984 74.9673088,39.4635984 C85.7252174,39.4635984 94.4961022,30.8405273 94.6754257,20.0876178 C94.8547493,9.33470832 86.3762676,0.424161502 75.6243374,0.0656813793 L74.3102803,0.0656813793 Z M101.905477,0.0656813793 C91.1535475,0.424161502 82.6750658,9.33470832 82.8543894,20.0876178 C83.0337129,30.8405273 91.8045977,39.4635984 102.562507,39.4635984 C113.320415,39.4635984 122.0913,30.8405273 122.270624,20.0876178 C122.449946,9.33470832 113.971466,0.424161502 103.219535,0.0656813793 L101.905477,0.0656813793 Z" id="Shape"></path>
        </g>
    </g>
</svg>