<?xml version="1.0" encoding="UTF-8"?>
<svg width="111px" height="50px" viewBox="0 0 111 50" version="1.1" xmlns="http://www.w3.org/2000/svg" xmlns:xlink="http://www.w3.org/1999/xlink">
    <!-- Generator: Sketch 50.2 (55047) - http://www.bohemiancoding.com/sketch -->
    <title>atandt</title>
    <desc>Created with Sketch.</desc>
    <defs>
        <polygon id="path-1" points="0.0414694894 49.958489 110.578394 49.958489 110.578394 0.184032101 0.0414694894 0.184032101"></polygon>
        <polygon id="path-3" points="0.0414694894 49.958489 110.578394 49.958489 110.578394 0.184032101 0.0414694894 0.184032101"></polygon>
    </defs>
    <g id="Page-1" stroke="none" stroke-width="1" fill="none" fill-rule="evenodd">
        <g id="atandt">
            <path d="M100.366532,33.8363083 L97.221071,30.5853051 C97.1277644,30.5092016 97.0904422,30.3542272 97.1775282,30.2310779 C97.1823663,30.2241594 99.5758467,26.185139 99.5758467,26.185139 C99.6297574,26.0772105 99.6345955,25.9948803 99.6345955,25.9582123 C99.6345955,25.7036115 99.427248,25.4939809 99.1708284,25.4939809 L97.4139042,25.4946728 C97.2362765,25.4946728 97.0814572,25.5866888 96.9957536,25.7347447 L95.4745143,28.3637747 C95.4047074,28.4647848 95.254035,28.4903833 95.1441409,28.4149716 C95.1427585,28.4135879 92.6870737,25.8862598 92.6870737,25.8862598 C92.6490597,25.8433652 92.6310898,25.7894009 92.6310898,25.7347447 C92.6310898,25.6717864 92.6566627,25.6067525 92.707808,25.5603985 L92.7396014,25.5341082 C94.127447,24.7246437 95.7095083,23.5374291 95.7095083,21.4418154 C95.7095083,19.0362529 93.9843771,17.421475 91.4194895,17.421475 C88.9036735,17.421475 86.9967682,19.1082054 86.9967682,21.6210045 C86.9967682,22.7286564 87.4577708,23.8307735 88.4088047,24.9916978 C88.4094954,24.9923896 88.4302302,25.0179881 88.4302302,25.0179881 C88.4696262,25.0657258 88.4862141,25.1273004 88.4799936,25.1895669 C88.4716998,25.2539089 88.4385245,25.3113325 88.3894519,25.3507679 C86.2973163,26.5407499 85.2433002,28.1174761 85.2433002,30.0456621 C85.2433002,33.3160371 87.9761393,35.027674 90.678568,35.027674 C92.5329451,35.027674 93.9802302,34.3157604 95.3729139,32.7134357 C95.3791345,32.7079009 95.3998693,32.6795351 95.3998693,32.6795351 C95.4834992,32.5972049 95.638319,32.5972049 95.7323163,32.6912965 L97.4215067,34.4430608 C97.4228892,34.4458281 97.4657407,34.4873391 97.4657407,34.4873391 C97.5562829,34.5752041 97.6730882,34.6250173 97.7961146,34.6250173 L100.030629,34.6250173 C100.288431,34.6250173 100.497852,34.4160786 100.497852,34.1594022 C100.497852,34.040404 100.448088,33.9227895 100.366532,33.8363083 Z M91.4609591,19.8498685 C92.5156665,19.8498685 93.0837983,20.5790784 93.0837983,21.4674139 C93.0837983,22.5086481 92.1569553,23.1112495 91.0393523,23.7339145 L90.9833685,23.7615885 C90.893518,23.8107098 90.7794771,23.791338 90.708979,23.7159264 C90.7062141,23.7117753 90.6834061,23.6903279 90.6834061,23.6903279 C90.1989042,23.1569116 89.6245519,22.3121627 89.6245519,21.6998755 C89.6245519,20.6593331 90.3682378,19.8498685 91.4609591,19.8498685 Z M93.7155169,30.9540612 L93.706532,30.9658226 C92.8951119,31.9337208 92.0042093,32.5792168 90.7062141,32.5792168 C89.1676961,32.5792168 87.9630075,31.4715649 87.9630075,30.0608828 C87.9630075,28.8079424 88.4958903,28.0621281 90.0786428,27.108067 C90.1892281,27.0430331 90.3129451,27.0568701 90.390355,27.1336654 L93.6920172,30.5929155 C93.7521479,30.6510309 93.7777208,30.7091463 93.7804857,30.7741802 C93.7818682,30.7755638 93.7818682,30.7783313 93.7818682,30.7797149 C93.7818682,30.8405978 93.7625153,30.8945621 93.7155169,30.9540612 Z" id="Fill-1" fill="#000000" fill-rule="nonzero"></path>
            <path d="M83.1601495,32.5480836 C83.1580759,32.5480836 83.0599317,32.550851 83.0599317,32.550851 C80.5351307,32.550851 79.2557972,31.2107375 79.2557972,28.5699461 L79.2557972,20.788709 C79.2557972,20.6537982 79.365,20.5437941 79.5032318,20.5437941 L83.4594207,20.5437941 C83.7206789,20.5437941 83.9321732,20.3313962 83.9321732,20.0726442 L83.9321732,18.3450948 C83.9321732,18.085651 83.7206789,17.8739449 83.4594207,17.8739449 L79.5149812,17.8739449 C79.3712205,17.8739449 79.2557972,17.7597897 79.2557972,17.6165767 L79.2557972,14.0417877 C79.2654734,13.7885707 79.062964,13.5671786 78.8037795,13.5554172 L78.7491781,13.5554172 L76.7254669,13.7138509 C76.4766498,13.7138509 76.2637735,13.9248651 76.2637735,14.1843088 L76.2637735,17.6283382 C76.2637735,17.7639408 76.1531883,17.8739449 76.0156477,17.8739449 L73.5330075,17.8725612 C73.2724411,17.8725612 73.058873,18.0828836 73.058873,18.3416356 L73.0547262,20.0809465 C73.058873,20.2089387 73.112092,20.3265532 73.2033249,20.4116508 C73.2945578,20.4988238 73.4148193,20.5458696 73.5419925,20.5437941 L76.0177208,20.5437941 C76.153879,20.5437941 76.2658467,20.6524145 76.2658467,20.7880172 L76.2637735,29.0902172 C76.2637735,33.547115 79.6145083,35.1362944 82.5540038,35.1362944 C82.5540038,35.1362944 82.9002738,35.1425211 83.1670608,35.1155389 C83.4331571,35.0913242 83.6329016,34.9052166 83.6329016,34.6471565 L83.6335928,33.0157742 C83.6335928,32.7577141 83.4200248,32.5480836 83.1601495,32.5480836" id="Fill-2" fill="#000000" fill-rule="nonzero"></path>
            <path d="M71.8299936,33.9525391 C71.6689538,33.500761 71.6247197,33.0040127 71.6115879,32.7846963 C71.6039849,32.6241871 71.5963825,31.9683133 71.5963825,31.9683133 L71.5977644,23.7470596 C71.5977644,19.4057009 68.5283314,17.8587242 65.6565691,17.8587242 C63.3833502,17.8587242 61.3098752,18.4550989 59.9738666,19.3468936 C59.8618989,19.4216134 59.792092,19.5330013 59.7672103,19.6464646 C59.7423287,19.7661547 59.7672103,19.889304 59.8342528,19.991006 C59.8446202,20.0055348 60.8910339,21.4231355 60.8910339,21.4231355 C61.0403238,21.6279231 61.3292281,21.674277 61.5372663,21.5255292 C61.5338107,21.5282967 61.6803362,21.4314377 61.6803362,21.4314377 C62.7226025,20.7817905 63.9549376,20.4088833 65.20939,20.4088833 C68.7529575,20.4088833 68.649284,23.1852774 68.649284,23.5478068 C68.649284,23.7311471 68.5373163,23.7775011 68.4046138,23.7740418 L67.857908,23.7615885 C65.1084809,23.6605784 58.1333125,24.5980352 58.1333125,30.1321433 C58.1333125,33.3845303 60.8412701,35.041511 63.366071,35.041511 C65.8134621,35.041511 67.7825718,34.0701536 68.7626337,32.8808634 L68.7750748,32.8670264 C68.7868246,32.8524976 68.8054857,32.8428117 68.8248381,32.8428117 C68.8600871,32.8428117 68.8877337,32.8711775 68.8877337,32.9050782 C68.88566,33.057977 68.8870425,33.4011346 68.9188354,33.7000138 C68.9423351,33.9698354 68.976893,34.16978 69.0225094,34.317144 C69.0632878,34.4458281 69.1469177,34.5752041 69.2720172,34.640238 C69.3321479,34.6699875 69.3984992,34.6872838 69.4696886,34.6914349 C69.4717622,34.6914349 71.4318865,34.6928186 71.4318865,34.6928186 C71.6876154,34.6928186 71.8949629,34.4859555 71.8949629,34.238965 C71.8949629,34.1594022 71.8299936,33.9525391 71.8299936,33.9525391 Z M68.775766,27.5148748 C68.374894,30.3528435 66.9801372,31.9904525 64.402808,32.4131728 C62.5878268,32.7106683 60.9428704,31.964854 60.8564755,30.0200636 C60.7583314,27.8836308 63.2368246,26.0882801 67.8164384,26.2854573 C67.8164384,26.2854573 68.1523411,26.3041373 68.3783502,26.3325031 C68.5801684,26.3553341 68.702503,26.4176007 68.7799129,26.5379826 C68.8538666,26.6500623 68.8669989,26.8756054 68.775766,27.5148748 Z" id="Fill-3" fill="#000000" fill-rule="nonzero"></path>
            <mask id="mask-2" fill="white">
                <use xlink:href="#path-1"></use>
            </mask>
            <g id="path-1"></g>
            <path d="M109.80637,32.5480836 C109.803605,32.5480836 109.706843,32.550851 109.706843,32.550851 C107.179969,32.550851 105.900635,31.2107375 105.900635,28.5699461 L105.900635,20.788709 C105.900635,20.6537982 106.012602,20.5437941 106.147379,20.5437941 L110.10495,20.5437941 C110.365517,20.5437941 110.578394,20.3313962 110.578394,20.0726442 L110.578394,18.3450948 C110.578394,18.085651 110.365517,17.8739449 110.10495,17.8739449 L106.161202,17.8739449 C106.01675,17.8739449 105.900635,17.7597897 105.900635,17.6165767 L105.900635,14.0417877 C105.911693,13.7885707 105.709184,13.5671786 105.449309,13.5554172 L105.395399,13.5554172 C105.394016,13.5554172 103.370996,13.7138509 103.370996,13.7138509 C103.121488,13.7138509 102.908612,13.9248651 102.908612,14.1843088 L102.908612,17.6283382 C102.908612,17.7639408 102.797335,17.8739449 102.661868,17.8739449 L100.176463,17.8725612 C99.9165879,17.8725612 99.7057843,18.0828836 99.7057843,18.3416356 L99.7023287,20.0809465 C99.7071668,20.2089387 99.7583125,20.3265532 99.8488542,20.4116508 C99.9400871,20.4988238 100.059657,20.5458696 100.186831,20.5437941 L102.662559,20.5437941 C102.798717,20.5437941 102.909994,20.6524145 102.909994,20.7880172 L102.909994,29.0902172 C102.909994,33.547115 106.260037,35.1362944 109.200224,35.1362944 C109.200224,35.1362944 109.547186,35.1425211 109.814664,35.1155389 C110.079377,35.0913242 110.27774,34.9052166 110.27774,34.6471565 L110.279122,33.0157742 C110.279122,32.7577141 110.066937,32.5480836 109.80637,32.5480836" id="Fill-4" fill="#000000" fill-rule="nonzero" mask="url(#mask-2)"></path>
            <mask id="mask-4" fill="white">
                <use xlink:href="#path-3"></use>
            </mask>
            <g id="path-3"></g>
            <path d="M0.9233873,18.3450948 C1.32287671,16.9219593 1.84400996,15.5520963 2.47572852,14.2458835 C2.18820672,14.9121351 2.03476961,15.6614086 2.03476961,16.7282413 C2.03476961,22.7978414 15.1439664,28.7837277 31.2085554,24.3904802 C37.4711395,22.6788432 46.8301121,19.3925557 46.8301121,14.3593469 C46.8301121,14.109589 46.934477,13.5346617 46.1050872,12.0873115 C47.1438979,13.7830359 47.9857285,15.6115954 48.5987858,17.5439325 C48.9001308,18.5574927 48.8510585,19.266639 48.8510585,19.5392279 C48.8510585,20.7755638 47.3173786,28.3326415 32.242528,29.7038882 C30.9396949,29.8215027 21.3623163,29.9716341 13.0345517,27.8621835 C7.4976837,26.4598035 1.935934,23.7484433 0.886064755,19.9840875 C0.722260274,19.3967068 0.792758408,18.8542964 0.9233873,18.3450948 Z M24.3584869,42.4325446 C21.2157908,42.7805452 2.97958281,43.6086896 0.322770859,29.1151238 C0.69737858,31.425211 1.38853673,33.6294452 2.35270237,35.6807804 C3.49656912,37.7480282 6.34414072,40.5818459 10.462061,42.2844887 C31.8520237,51.1311747 45.0144396,40.6032932 47.5516812,35.3715234 C48.5697572,33.1202435 49.2650623,30.69185 49.5760834,28.1430746 C49.2747385,30.0795627 47.3000996,39.8858447 24.3584869,42.4325446 Z M23.8159278,47.4463816 C20.0297634,47.4463816 11.7842466,46.8354781 6.41947698,41.7911996 C10.9721357,46.831327 17.5567995,50 24.8810025,50 C34.4120735,50 42.6935305,44.6326276 46.8715816,36.7538397 C45.5770423,39.0099626 39.850797,47.4463816 23.8159278,47.4463816 Z M9.13227273,35.2795074 C14.5122478,37.4788986 23.0542715,39.1531756 27.9055106,38.9788294 C45.4118556,38.353397 49.2892528,29.5053272 49.6942715,26.9254186 C49.7391968,26.3200498 49.762005,25.7077626 49.762005,25.0947834 C49.762005,23.057977 49.5187173,21.079286 49.0577148,19.183617 C49.2450187,20.0034592 49.2940909,20.8018541 49.2940909,21.2031272 C49.2940909,22.0568701 49.4585866,29.7135741 31.9957846,33.6107652 C21.5316501,35.9429916 17.1137671,35.8710391 9.92019301,33.602463 C3.61752179,31.6133942 0.180392279,26.9932198 0.0843212953,23.0282275 C0.0283374845,23.7090079 0,24.3987823 0,25.0947834 C0,25.6586412 0.0186612703,26.2204234 0.0559838107,26.775979 C0.515603986,30.0622665 4.80078456,33.5076795 9.13227273,35.2795074 Z M17.261675,18.6017711 C19.8825467,18.9366265 26.8224657,19.8844611 32.194147,19.4409852 C43.0391096,18.5450394 45.4505604,14.7537014 45.4505604,12.2872561 C45.4505604,11.6133942 45.0842466,10.6295835 44.7200062,10.0574235 C43.753076,8.78165212 42.6658842,7.60135601 41.476401,6.5331396 C41.7839664,6.86868687 41.8855666,7.29140722 41.9014633,7.5522347 C42.0002989,9.22927909 39.2591656,11.4812509 33.7222976,13.3222637 C30.2665068,14.4728103 25.6903487,15.5721599 20.0221606,15.5721599 C10.462061,15.5721599 7.16039849,11.9427148 7.16039849,9.67275495 C7.16039849,9.43406672 7.11270861,7.48927631 9.33063513,5.64757162 C7.30415939,7.27134359 5.53894147,9.20852359 4.10478829,11.3809326 C3.95066003,11.6403764 3.85873599,11.9385637 3.85873599,12.2872561 C3.85873599,14.6056455 9.52554174,17.6158849 17.261675,18.6017711 Z M10.138599,6.2563996 C10.3169178,8.75190258 16.920934,10.7146811 24.8879141,10.5092016 C32.8569676,10.3051059 38.9585118,8.01369864 38.9585118,5.51335273 C38.9585118,4.79936348 38.4235554,4.15940224 37.478051,3.60730593 C33.7817372,1.43212952 29.4765131,0.184032101 24.8810025,0.184032101 C20.0822914,0.184032101 15.6035866,1.54420922 11.8022167,3.89857479 C10.6749377,4.61879066 10.0798506,5.43309808 10.138599,6.2563996 Z" id="Fill-6" fill="#000000" fill-rule="nonzero" mask="url(#mask-4)"></path>
        </g>
    </g>
</svg>