<svg xmlns="http://www.w3.org/2000/svg" width="105" height="78" viewBox="0 0 105 78" xmlns:xlink="http://www.w3.org/1999/xlink">
  <defs>
    <rect id="a" width="29" height="21" y="4" rx="1"/>
    <path id="b" d="M2,0.998956561 C2,0.447248087 2.44610862,0 2.99296544,0 L28.0070346,0 C28.5554342,0 29,0.442660332 29,0.998956561 L29,3 L2,3 L2,0.998956561 Z"/>
    <path id="c" d="M0,0.9996105 C0,0.447540865 0.450768828,0 0.995751992,0 L55.004248,0 C55.5541866,0 56,0.453815624 56,0.9996105 L56,42.0003895 C56,42.5524591 55.5492312,43 55.004248,43 L0.995751992,43 C0.445813352,43 0,42.5461844 0,42.0003895 L0,0.9996105 Z"/>
    <path id="d" d="M4.82620499e-15,0.990777969 C5.35340435e-15,0.443586406 0.450768828,0 0.995751992,0 L55.004248,0 C55.5541866,0 56,0.45097518 56,0.990777969 L56,6 L0,6 L4.82620499e-15,0.990777969 Z"/>
  </defs>
  <g fill="none" fill-rule="evenodd">
    <g fill="#c8b9ff">
      <g transform="translate(65 12)">
        <path fill-rule="nonzero" d="M0.997654236,12.8073273 C1.07316298,12.8074159 1.07316298,12.8074159 1.42674843,12.8078142 C1.9075018,12.8083453 1.9075018,12.8083453 2.6188504,12.8090976 C3.89061308,12.8104251 5.27425869,12.8117527 6.72230793,12.8129918 C8.95906265,12.8149058 11.1416617,12.8164294 13.192487,12.8174179 C14.8714724,12.8182272 16.4221609,12.8186564 17.8182094,12.8186564 C21.1590359,12.8186564 22.7550151,11.7883501 24.5699521,9.33398864 C24.6576084,9.21533599 24.6576084,9.21533599 24.7419992,9.10139183 C26.1800534,7.1640772 27.2725376,6.66682575 31.2909421,7.12813216 L31.7471395,3.15423182 C26.2815611,2.52679217 23.8034639,3.65471453 21.5301559,6.71726455 C21.4399421,6.83907061 21.4399421,6.83907061 21.353776,6.9557095 C20.2243947,8.48298579 19.7044296,8.81865638 17.8182094,8.81865638 C16.4228575,8.81865638 14.8727971,8.81822733 13.1944151,8.81741834 C11.1441322,8.81643009 8.96201889,8.81490684 6.72573068,8.81299327 C5.27794651,8.81175442 3.89454916,8.81042708 2.62302598,8.80909974 C1.9118257,8.80834759 1.9118257,8.80834759 1.43120401,8.80781668 C1.07774298,8.80741851 1.07774298,8.80741851 1.00234576,8.80733007 L0.997654236,12.8073273 Z"/>
        <circle cx="34" cy="5" r="4"/>
      </g>
      <g fill-rule="nonzero" transform="matrix(-1 0 0 1 36 26)">
        <path d="M0.997654236,14.8073273 C1.07316298,14.8074159 1.07316298,14.8074159 1.42674843,14.8078142 C1.9075018,14.8083453 1.9075018,14.8083453 2.6188504,14.8090976 C3.89061308,14.8104251 5.27425869,14.8117527 6.72230793,14.8129918 C8.95906265,14.8149058 11.1416617,14.8164294 13.192487,14.8174179 C14.8714724,14.8182272 16.4221609,14.8186564 17.8182094,14.8186564 C21.1590359,14.8186564 22.7550151,13.7883501 24.5699521,11.3339886 C24.6576084,11.215336 24.6576084,11.215336 24.7419992,11.1013918 C26.1800534,9.1640772 27.2725376,8.66682575 31.2909421,9.12813216 L31.7471395,5.15423182 C26.2815611,4.52679217 23.8034639,5.65471453 21.5301559,8.71726455 C21.4399421,8.83907061 21.4399421,8.83907061 21.353776,8.9557095 C20.2243947,10.4829858 19.7044296,10.8186564 17.8182094,10.8186564 C16.4228575,10.8186564 14.8727971,10.8182273 13.1944151,10.8174183 C11.1441322,10.8164301 8.96201889,10.8149068 6.72573068,10.8129933 C5.27794651,10.8117544 3.89454916,10.8104271 2.62302598,10.8090997 C1.9118257,10.8083476 1.9118257,10.8083476 1.43120401,10.8078167 C1.07774298,10.8074185 1.07774298,10.8074185 1.00234576,10.8073301 L0.997654236,14.8073273 Z"/>
        <path d="M27.5946772,10.7877649 C27.0136078,11.3782307 27.0212252,12.3279477 27.6116911,12.909017 C28.2021569,13.4900863 29.1518738,13.482469 29.7329432,12.8920031 L34.6199884,7.92592913 C35.1911057,7.34557621 35.1949378,6.41557682 34.6286224,5.83053715 L30.1149021,1.16757796 C29.5387184,0.572343677 28.5890965,0.556900125 27.9938622,1.13308382 C27.3986279,1.70926752 27.3831844,2.65888941 27.9593681,3.2541237 L31.4548455,6.86517347 L27.5946772,10.7877649 Z"/>
      </g>
      <g fill-rule="nonzero" transform="translate(25)">
        <path d="M28,2 L24,2 L24,8.90338312 L24.0049662,9.04423851 C24.2779334,12.9104646 22.9306475,15.0313038 20.4109417,16.153595 C19.6192984,16.5061974 18.7515156,16.7342912 17.869381,16.8557944 C17.2955756,16.9348291 16.8193488,16.9570438 16.503372,16.9498903 C16.4859679,16.9494077 8.65916696e-16,16.9479861 8.65916696e-16,16.9479861 L0,20.9479861 L16.4113416,20.9479861 C16.9296315,20.9605654 17.6150277,20.9285936 18.4151791,20.8183825 C19.6475253,20.6486419 20.8735187,20.3263937 22.038428,19.8075365 C26.0420285,18.0243101 28.3692452,14.3804581 28,8.83492586 L28,2 Z"/>
        <path d="M29.9872387,8.23649533 C30.5996609,8.79437576 31.5483786,8.75016093 32.106259,8.13773874 C32.6641395,7.52531656 32.6199246,6.57659884 32.0075024,6.01871842 L26.8745074,1.34286323 C26.2725138,0.794482649 25.3429468,0.826565669 24.7801942,1.41514623 L20.2782113,6.12375132 C19.7057099,6.72252812 19.7270104,7.6720367 20.3257872,8.24453809 C20.924564,8.81703948 21.8740726,8.79573904 22.446574,8.19696223 L25.9366796,4.54667533 L29.9872387,8.23649533 Z"/>
      </g>
      <path fill-rule="nonzero" d="M28,0 L24,0 L24,6.90338312 L24.0049662,7.04423851 C24.2779334,10.9104646 22.9306475,13.0313038 20.4109417,14.153595 C19.6192984,14.5061974 18.7515156,14.7342912 17.869381,14.8557944 C17.2955756,14.9348291 16.8193488,14.9570438 16.503372,14.9498903 C16.4859679,14.9494077 8.65916696e-16,14.9479861 8.65916696e-16,14.9479861 L0,18.9479861 L16.4113416,18.9479861 C16.9296315,18.9605654 17.6150277,18.9285936 18.4151791,18.8183825 C19.6475253,18.6486419 20.8735187,18.3263937 22.038428,17.8075365 C26.0420285,16.0243101 28.3692452,12.3804581 28,6.83492586 L28,0 Z" transform="rotate(180 17.5 34.5)"/>
      <g fill-rule="nonzero" transform="matrix(-1 0 0 1 102 56)">
        <path d="M12.5780365,16.1412678 C14.6332991,15.0248106 15.8923791,12.958669 15.8923791,10.0376688 L15.8923791,0.288811564 L11.8923791,0.288811564 L11.8923791,10.0376688 C11.8923791,11.475689 11.4496963,12.2021285 10.6686874,12.6263872 C10.1694108,12.8976036 9.63069556,12.9944625 9.36039674,12.9936924 L3.67048554,13.0194269 L3.68861703,17.0193858 L9.35671432,16.9936928 C10.2368798,16.9949698 11.3906772,16.7862637 12.5780365,16.1412678 Z"/>
        <path d="M7.79784961,11.0312838 C8.36741195,10.4297107 8.34146207,9.48031781 7.73988892,8.91075547 C7.13831578,8.34119313 6.18892289,8.36714302 5.61936056,8.96871616 L0.908854681,13.9439641 C0.352660535,14.5314177 0.362508652,15.4540978 0.931114894,16.029546 L5.64162077,20.7967327 C6.22389353,21.3860119 7.17362401,21.3916917 7.76290318,20.8094189 C8.35218234,20.2271462 8.35786216,19.2774157 7.7755894,18.6881365 L4.08483848,14.9529753 L7.79784961,11.0312838 Z"/>
      </g>
      <rect width="8" height="8" x="5" y="63"/>
    </g>
    <g transform="translate(22 20)">
      <g transform="translate(51 13)">
        <use fill="#FFFFFF" xlink:href="#a"/>
        <rect width="32" height="24" x="-1.5" y="2.5" stroke="#7f5eff" stroke-width="3" rx="1"/>
        <rect width="15" height="12" x="11" y="10" fill="#c8b9ff" rx="2"/>
        <g>
          <use fill="#FFFFFF" xlink:href="#b"/>
          <path stroke="#7f5eff" stroke-width="3" d="M0.5,0.998956561 C0.5,-0.378988385 1.61548442,-1.5 2.99296544,-1.5 L28.0070346,-1.5 C29.3863958,-1.5 30.5,-0.383230809 30.5,0.998956561 L30.5,4.5 L0.5,4.5 L0.5,0.998956561 Z"/>
        </g>
      </g>
      <use fill="#FFFFFF" xlink:href="#c"/>
      <path stroke="#7f5eff" stroke-width="3" d="M-1.5,0.9996105 C-1.5,-0.379027728 -0.379516152,-1.5 0.995751992,-1.5 L55.004248,-1.5 C56.3832282,-1.5 57.5,-0.374039708 57.5,0.9996105 L57.5,42.0003895 C57.5,43.3790277 56.3795162,44.5 55.004248,44.5 L0.995751992,44.5 C-0.383228182,44.5 -1.5,43.3740397 -1.5,42.0003895 L-1.5,0.9996105 Z"/>
      <g>
        <use fill="#FFFFFF" xlink:href="#d"/>
        <path stroke="#7f5eff" stroke-width="3" d="M-1.5,0.990777969 C-1.5,-0.385990617 -0.376549227,-1.5 0.995751992,-1.5 L55.004248,-1.5 C56.380106,-1.5 57.5,-0.379960079 57.5,0.990777969 L57.5,7.5 L-1.5,7.5 L-1.5,0.990777969 Z"/>
        <g fill="#c8b9ff" transform="translate(1 1)">
          <path d="M2,4 C0.8954305,4 0,3.1045695 0,2 C0,0.8954305 0.8954305,0 2,0 C3.1045695,0 4,0.8954305 4,2 C4,3.1045695 3.1045695,4 2,4 Z M7,4 C5.8954305,4 5,3.1045695 5,2 C5,0.8954305 5.8954305,0 7,0 C8.1045695,0 9,0.8954305 9,2 C9,3.1045695 8.1045695,4 7,4 Z M12,4 C10.8954305,4 10,3.1045695 10,2 C10,0.8954305 10.8954305,0 12,0 C13.1045695,0 14,0.8954305 14,2 C14,3.1045695 13.1045695,4 12,4 Z"/>
        </g>
      </g>
      <g transform="translate(0 10)">
        <path fill="#c8b9ff" d="M0,0 L18,0 L18,33 L0.993397683,33 C0.444759292,33 0,32.5584559 0,31.994357 L0,0 Z" opacity=".3"/>
        <path fill="#c8b9ff" d="M21,6.99961498 C21,5.89525812 21.8970601,5 23.0058587,5 L32.9941413,5 C34.1019465,5 35,5.88743329 35,6.99961498 L35,13.000385 C35,14.1047419 34.1029399,15 32.9941413,15 L23.0058587,15 C21.8980535,15 21,14.1125667 21,13.000385 L21,6.99961498 Z M21,20.999615 C21,19.8952581 21.8970601,19 23.0058587,19 L32.9941413,19 C34.1019465,19 35,19.8874333 35,20.999615 L35,27.000385 C35,28.1047419 34.1029399,29 32.9941413,29 L23.0058587,29 C21.8980535,29 21,28.1125667 21,27.000385 L21,20.999615 Z M38,6.99961498 C38,5.89525812 38.8970601,5 40.0058587,5 L49.9941413,5 C51.1019465,5 52,5.88743329 52,6.99961498 L52,13.000385 C52,14.1047419 51.1029399,15 49.9941413,15 L40.0058587,15 C38.8980535,15 38,14.1125667 38,13.000385 L38,6.99961498 Z M38,20.999615 C38,19.8952581 38.8970601,19 40.0058587,19 L49.9941413,19 C51.1019465,19 52,19.8874333 52,20.999615 L52,27.000385 C52,28.1047419 51.1029399,29 49.9941413,29 L40.0058587,29 C38.8980535,29 38,28.1125667 38,27.000385 L38,20.999615 Z"/>
        <path fill="#7f5eff" d="M0,1.0093689 C0,0.451909848 0.455664396,0 0.995397568,0 L9.00460243,0 C9.55434533,0 10,0.443353176 10,1.0093689 L10,2.9906311 C10,3.54809015 9.5443356,4 9.00460243,4 L0.995397568,4 C0.445654671,4 0,3.55664682 0,2.9906311 L0,1.0093689 Z M0,7.0093689 C0,6.45190985 0.455664396,6 0.995397568,6 L9.00460243,6 C9.55434533,6 10,6.44335318 10,7.0093689 L10,8.9906311 C10,9.54809015 9.5443356,10 9.00460243,10 L0.995397568,10 C0.445654671,10 0,9.55664682 0,8.9906311 L0,7.0093689 Z M0,13.0093689 C0,12.4519098 0.455664396,12 0.995397568,12 L9.00460243,12 C9.55434533,12 10,12.4433532 10,13.0093689 L10,14.9906311 C10,15.5480902 9.5443356,16 9.00460243,16 L0.995397568,16 C0.445654671,16 0,15.5566468 0,14.9906311 L0,13.0093689 Z" transform="translate(4 6)" opacity=".5"/>
      </g>
    </g>
  </g>
</svg>
