<svg xmlns="http://www.w3.org/2000/svg" width="108" height="49" viewBox="0 0 108 49" xmlns:xlink="http://www.w3.org/1999/xlink">
  <defs>
    <path id="a" d="M68,38.6551724 L68,0.994371751 C68,0.445195397 67.5590161,0 67.0007,0 L9.99929996,0 C9.44740183,0 9,0.447483603 9,0.994371751 L9,38.6551724 L68,38.6551724 Z"/>
    <path id="b" d="M0,38 L77,38 L77,42 L77,42 C77,44.209139 75.209139,46 73,46 L4,46 L4,46 C1.790861,46 2.705415e-16,44.209139 0,42 L0,38 Z"/>
  </defs>
  <g fill="none" fill-rule="evenodd" transform="translate(-3 -1)">
    <path fill="#c8b9ff" fill-rule="nonzero" d="M96.6940956,32.4447258 L93.7035281,31.6441014 L93.514774,29.5029217 L90.8250276,29.5029217 L91.2025358,33.7085998 L96.7,35.2422271 L96.7,35.2271572 L102.17387,33.7085998 L102.911191,25.4859978 L93.16086,25.4859978 L92.9131202,22.7431643 L96.6941014,22.7431643 L103.153032,22.7431643 L103.400772,20.065215 L89.975634,20.065215 L90.7070562,28.1580485 L96.6882029,28.1580485 L96.6882029,28.1639471 L99.9914002,28.1639471 L99.6787762,31.6441014 L96.6940956,32.4447258 L96.6940956,32.4447258 Z M87.946527,37.4482911 L86,15.6 L107.4,15.6 L105.453473,37.4364939 L96.6823043,39.8667034 L87.946527,37.4482911 Z" transform="rotate(16 96.7 27.733)"/>
    <path fill="#c8b9ff" fill-rule="nonzero" d="M40.7781619,24.0210027 C39.2827399,24.0288322 37.9830537,24.3889862 36.8947623,24.9213877 C36.4954612,24.1306148 36.09616,23.4259657 36.0256951,22.909223 C35.9474008,22.3063566 35.8534475,21.9383731 35.9474008,21.2180652 C36.041354,20.4977572 36.4641434,19.4721013 36.456314,19.3938069 C36.4484846,19.3155126 36.3623608,18.9475292 35.501123,18.9396997 C34.6398852,18.9318703 33.8960889,19.1041179 33.8099651,19.3311715 C33.7238414,19.5582251 33.5594232,20.0749677 33.4498111,20.6073693 C33.3010519,21.3903127 31.7273356,24.1854209 30.8269506,25.6495251 C30.5372615,25.0779764 30.2867196,24.5768926 30.2319136,24.1775914 C30.1536192,23.574725 30.059666,23.2067415 30.1536192,22.4864336 C30.2475724,21.7661256 30.6703619,20.7404697 30.6625325,20.6621753 C30.654703,20.583881 30.5685792,20.2158976 29.7073414,20.2080681 C28.8461036,20.2002387 28.1023074,20.3724862 28.0161836,20.5995398 C27.9300598,20.8265934 27.8361066,21.358995 27.6560296,21.8757377 C27.4759526,22.3924803 25.3854936,27.0588233 24.8374332,28.2645562 C24.5555735,28.8830816 24.3128611,29.3763359 24.1406135,29.7130016 C24.1406135,29.7130016 24.1406135,29.7130016 24.1406135,29.7130016 C24.1406135,29.7130016 24.1327841,29.7364899 24.1092958,29.7756371 C23.9605365,30.0653262 23.8744127,30.2219149 23.8744127,30.2219149 C23.8744127,30.2219149 23.8744127,30.2219149 23.8744127,30.2297443 C23.7569712,30.441139 23.6317003,30.6368749 23.5690648,30.6368749 C23.5220882,30.6368749 23.4359644,30.0731556 23.5847237,29.305871 C23.897901,27.6851781 24.6416973,25.1641002 24.6338679,25.0779764 C24.6338679,25.0309998 24.7747977,24.5925514 24.1484429,24.3654978 C23.537747,24.1384442 23.3185229,24.5142571 23.2637168,24.5142571 C23.2089108,24.5142571 23.1697636,24.6473575 23.1697636,24.6473575 C23.1697636,24.6473575 23.8509244,21.8131022 21.8700775,21.8131022 C20.6330268,21.8131022 18.9262101,23.1675944 18.0806312,24.3889862 C17.5482296,24.6786752 16.4129616,25.2972006 15.1993993,25.9627025 C14.7374627,26.2210738 14.2598671,26.4794452 13.8135894,26.7221576 C13.7822716,26.6908399 13.7509539,26.6516927 13.7196362,26.620375 C11.3238292,24.0601499 6.89236927,22.2515505 7.0802757,18.8144288 C7.15074061,17.5617193 7.58135951,14.2733568 15.590871,10.2803452 C22.1832549,7.03112983 27.428976,7.9315148 28.3371904,9.9280206 C29.6368765,12.7779348 25.5264234,18.0706325 18.7148154,18.8379171 C16.1154431,19.1276062 14.7531215,18.1254385 14.4086264,17.7496257 C14.0484724,17.358154 13.9936664,17.3346657 13.860566,17.41296 C13.6413418,17.5304015 13.7822716,17.8827261 13.860566,18.0862914 C14.0641313,18.6186929 14.9018808,19.5582251 16.3190084,20.0201617 C17.5717179,20.4272923 20.617368,20.6543459 24.3050316,19.2293888 C28.4311436,17.6321842 31.6568706,13.1928948 30.7095091,9.4739134 C29.7621475,5.70012596 23.4985999,4.45524588 17.5717179,6.56136376 C14.0484724,7.81407328 10.2277084,9.78709078 7.47957686,12.3551453 C4.21470267,15.4086248 3.69795999,18.0628031 3.90935472,19.1745828 C4.66880987,23.1206178 10.1102669,25.6886723 12.2868497,27.5912249 C12.1772376,27.6538603 12.0754549,27.7086664 11.9893311,27.755643 C10.9010397,28.295874 6.75143945,30.4646273 5.71795409,32.7586516 C4.54353892,35.3580239 5.90586052,37.2214293 6.80624549,37.4719712 C9.60135361,38.2470852 12.4747561,36.8534459 14.0171547,34.5515922 C15.5595533,32.2497384 15.3716468,29.2588944 14.6591683,27.8887434 C14.6513389,27.8730845 14.6435094,27.8574256 14.6278506,27.8417668 C14.9097102,27.6773486 15.1993993,27.5051011 15.4812589,27.340683 C16.0371488,27.0118467 16.5852092,26.7064988 17.0549753,26.4559569 C16.7887745,27.1840943 16.5930386,28.0531615 16.4990854,29.305871 C16.3816439,30.7778047 16.9845104,32.6881867 17.7752832,33.4398124 C18.1276078,33.7686487 18.5425678,33.7764781 18.8087686,33.7764781 C19.7326419,33.7764781 20.1476019,33.0091936 20.6095385,32.1009791 C21.1732578,30.9891994 21.6821711,29.6973428 21.6821711,29.6973428 C21.6821711,29.6973428 21.0479869,33.1892705 22.7704625,33.1892705 C23.3968172,33.1892705 24.0310014,32.3750094 24.3128611,31.9600493 C24.3128611,31.9678788 24.3128611,31.9678788 24.3128611,31.9678788 C24.3128611,31.9678788 24.3285199,31.9443905 24.3598377,31.8895844 C24.4224731,31.7878018 24.4616203,31.7251663 24.4616203,31.7251663 C24.4616203,31.7251663 24.4616203,31.7173369 24.4616203,31.7095074 C24.7121622,31.2710591 25.2758815,30.2767209 26.113631,28.6247102 C27.194093,26.495104 28.2354078,23.8330963 28.2354078,23.8330963 C28.2354078,23.8330963 28.329361,24.4829394 28.6503678,25.5634013 C28.8382742,26.1975855 29.2297459,26.8944052 29.5429233,27.5677366 C29.2923814,27.9200611 29.1357927,28.115797 29.1357927,28.115797 C29.1357927,28.115797 29.1357927,28.115797 29.1436222,28.1236264 C28.9400569,28.3898272 28.7208327,28.6795163 28.4781202,28.9613759 C27.6247119,29.9792024 26.6068854,31.1457881 26.4659556,31.4824538 C26.3015374,31.881755 26.3406846,32.1714441 26.653862,32.4063271 C26.8809156,32.5785747 27.2880462,32.602063 27.7030062,32.5785747 C28.4702908,32.5237686 29.0105218,32.3358622 29.2767225,32.2184207 C29.6916826,32.0696614 30.1771075,31.8426078 30.6312147,31.5059421 C31.4689642,30.8874168 31.9778775,30.0026907 31.9309008,28.836105 C31.9074125,28.1940913 31.6960178,27.5520777 31.4376465,26.9492112 C31.5159408,26.8395992 31.5864057,26.7299871 31.6647001,26.620375 C32.9878745,24.6865047 34.0135304,22.5647279 34.0135304,22.5647279 C34.0135304,22.5647279 34.1074836,23.214571 34.4284905,24.2950329 C34.5850791,24.8430934 34.906086,25.4381304 35.1879456,26.0175085 C33.9430655,27.0275056 33.1757809,28.2019208 32.9017507,28.9692053 C32.4084964,30.3941624 32.7921386,31.0361761 33.5202761,31.1849353 C33.8491123,31.2554002 34.3188784,31.0988115 34.6633735,30.9500523 C35.1018218,30.8091225 35.6185645,30.56641 36.1118189,30.206256 C36.9495684,29.5877307 37.7560001,28.7264929 37.7090235,27.5599071 C37.6855352,27.0275056 37.5446054,26.5029335 37.3488695,25.9940202 C38.4058432,25.5555719 39.7681648,25.3128594 41.5062993,25.5164247 C45.2331101,25.9548731 45.9690769,28.2802151 45.8281471,29.2588944 C45.6872173,30.2375737 44.9042738,30.7699753 44.6459025,30.9343934 C44.3875312,31.0988115 44.3014074,31.1536176 44.3248957,31.2710591 C44.3562134,31.4433066 44.4814844,31.4354772 44.7007085,31.4041595 C45.0060565,31.3493534 46.6580672,30.6133866 46.7285321,28.8126167 C46.8459736,26.5107629 44.6537319,23.9975144 40.7781619,24.0210027 Z M12.0284783,33.7138427 C10.7914277,35.0605054 9.06895207,35.5694186 8.32515579,35.1387997 C7.52655347,34.6768631 7.83973085,32.6881867 9.35864114,31.2632297 C10.2825144,30.3941624 11.4725885,29.5877307 12.2633613,29.0944763 C12.4434383,28.9848642 12.7096391,28.8282755 13.0306459,28.6325397 C13.085452,28.6012219 13.1167697,28.5855631 13.1167697,28.5855631 L13.1167697,28.5855631 C13.1794052,28.5464159 13.2420407,28.5072687 13.3046761,28.4681215 C13.860566,30.5037745 13.3281644,32.296715 12.0284783,33.7138427 Z M21.032328,27.5912249 C20.6017091,28.6403691 19.7013241,31.3258651 19.1532637,31.1771059 C18.6834976,31.0518349 18.3938086,29.0161819 19.0593105,27.0040173 C19.3959762,25.9940202 20.1084547,24.7882873 20.5234148,24.3185212 C21.1967461,23.5668955 21.9405424,23.3163536 22.1206194,23.6217016 C22.347673,24.0210027 21.2985288,26.9335524 21.032328,27.5912249 Z M28.4624614,31.1457881 C28.2823844,31.2397414 28.1101368,31.3023768 28.0318425,31.2554002 C27.9770364,31.2240825 28.1101368,31.0988115 28.1101368,31.0988115 C28.1101368,31.0988115 29.0418395,30.0966439 29.4098229,29.6425367 C29.6212177,29.3763359 29.8717596,29.0631586 30.1379603,28.710834 C30.1379603,28.7421517 30.1379603,28.7812989 30.1379603,28.8126167 C30.1379603,30.0105201 28.979204,30.8169519 28.4624614,31.1457881 Z M34.1936074,29.8382726 C34.060507,29.7443194 34.0839953,29.431142 34.5302731,28.4524627 C34.7025207,28.0688204 35.1096513,27.4268067 35.8064709,26.8082814 C35.8847653,27.0588233 35.9395713,27.3015358 35.9317419,27.5285894 C35.9239125,29.0396703 34.8434505,29.6033895 34.1936074,29.8382726 Z" transform="rotate(-15 25.3 21.615)"/>
    <g transform="translate(19 4)">
      <use fill="#FFFFFF" xlink:href="#a"/>
      <path stroke="#7f5eff" stroke-width="3" d="M69.5,40.1551724 L7.5,40.1551724 L7.5,0.994371751 C7.5,-0.382862661 8.62089232,-1.5 9.99929996,-1.5 L67.0007,-1.5 C68.3850596,-1.5 69.5,-0.385614381 69.5,0.994371751 L69.5,40.1551724 Z"/>
      <path fill="#f5f3ff" d="M65,35 L65,3.25758219 C65,3.11532347 64.8881226,3 64.7509537,3 L26.2490463,3 C26.1115018,3 26,3.11587143 26,3.25758219 L26,35 L65,35 Z"/>
      <rect width="12" height="32" x="12" y="3" fill="#f5f3ff"/>
      <g fill="#8d70ff" transform="translate(14 6)">
        <rect width="8" height="1"/>
        <rect width="8" height="1" y="3" opacity=".4"/>
        <rect width="8" height="1" y="6" opacity=".4"/>
        <rect width="8" height="1" y="9" opacity=".4"/>
        <rect width="8" height="1" y="12" opacity=".4"/>
      </g>
      <g fill="#8d70ff" transform="translate(31 6)" opacity=".5">
        <rect width="24" height="2" rx="1"/>
        <rect width="16.459" height="2" y="5" rx="1"/>
        <rect width="8.189" height="2" x="18.811" y="5" rx="1"/>
        <rect width="7.054" height="2" y="10" rx="1"/>
        <rect width="8" height="2" x="9.405" y="10" rx="1"/>
        <rect width="3.919" height="2" x="19.081" y="10" rx="1"/>
        <g transform="translate(0 15)">
          <rect width="29" height="2" rx="1"/>
          <rect width="12.459" height="2" y="5" rx="1"/>
          <rect width="7.459" height="2" y="10" rx="1"/>
          <rect width="10.189" height="2" x="14.811" y="5" rx="1"/>
        </g>
      </g>
      <g>
        <use fill="#FFFFFF" xlink:href="#b"/>
        <path stroke="#7f5eff" stroke-width="3" d="M1.5,39.5 L1.5,42 C1.5,43.3807119 2.61928813,44.5 4,44.5 L73,44.5 C74.3807119,44.5 75.5,43.3807119 75.5,42 L75.5,39.5 L1.5,39.5 Z"/>
      </g>
    </g>
  </g>
</svg>
