<svg xmlns="http://www.w3.org/2000/svg" width="97" height="55" viewBox="0 0 97 55" xmlns:xlink="http://www.w3.org/1999/xlink">
  <defs>
    <path id="a" d="M0,3.00746124 C0,1.89877101 0.885181129,0.8393327 1.97241221,0.664232597 C1.97241221,0.664232597 5,1.16341446e-15 10,0 C15,0 18.0459008,0.66701448 18.0459008,0.66701448 C19.12512,0.850917304 20,1.90034552 20,3.00746124 L20,33.9925388 C20,35.101229 19.1148189,36.1606673 18.0275878,36.3357674 C18.0275878,36.3357674 15,37 10,37 C5,37 1.95409924,36.3329855 1.95409924,36.3329855 C0.874880029,36.1490827 0,35.0996545 0,33.9925388 L0,3.00746124 Z"/>
    <path id="b" d="M9.86076132e-32,2.99140827 C-5.07874039e-16,1.3392991 1.35059566,0 2.99921059,0 L32.0007894,0 C33.6572077,0 35,1.33604429 35,2.99140827 L35,46.0085917 C35,47.6607009 33.6494043,49 32.0007894,49 L2.99921059,49 C1.34279232,49 1.37327651e-14,47.6639557 1.32238905e-14,46.0085917 L9.86076132e-32,2.99140827 Z"/>
    <path id="c" d="M2,0 L18,0 L18,0 C19.1045695,-2.16501571e-15 20,0.8954305 20,2 L20,34 L20,34 C20,35.1045695 19.1045695,36 18,36 L2,36 L2,36 C0.8954305,36 1.3527075e-16,35.1045695 0,34 L0,2 L0,2 C-1.3527075e-16,0.8954305 0.8954305,2.02906125e-16 2,0 Z"/>
  </defs>
  <g fill="none" fill-rule="evenodd" transform="translate(-3 3)">
    <path fill="#c8b9ff" d="M92.1054374,26.8389498 C91.5847337,27.3686903 91.0642927,27.7214352 90.543589,27.8984307 C90.1864888,28.0063103 89.6850867,28.0890892 89.0392951,28.1481915 C89.0682255,26.687233 89.4443209,25.4272581 90.1675374,24.3685339 C90.8810376,23.3193781 92.0861796,22.5937721 93.7833138,22.1917604 C93.7929864,22.2211781 93.8050225,22.2751179 93.8194658,22.3532683 C93.8339529,22.4319972 93.845989,22.485937 93.8556179,22.5153547 C93.8556179,22.555142 93.8577625,22.6038747 93.8628396,22.662443 C93.867654,22.7210113 93.870105,22.7705896 93.870105,22.8095313 C93.870105,23.4078981 93.7302674,24.0744017 93.4506359,24.8097988 C93.1613318,25.5451958 92.7129761,26.2214905 92.1054374,26.8389498 Z M97.0230385,38.2076076 C97.6883942,39.1783459 98.4499512,39.7961168 99.3081034,40.0605642 C98.9320518,41.2859589 98.3390003,42.5118877 97.5289925,43.7372823 C96.2850723,45.6588208 95.0459228,46.6195011 93.8119378,46.6195011 C93.3394223,46.6195011 92.664394,46.4628888 91.7871591,46.14913 C90.9576309,45.8356383 90.2298626,45.678759 89.6030661,45.678759 C89.014829,45.678759 88.3304781,45.8404894 87.5494008,46.1640836 C86.7683234,46.4972019 86.1321607,46.6638723 85.6403875,46.6638723 C84.1746529,46.6638723 82.7234491,45.3943734 81.2869075,42.855064 C79.8693611,40.295594 79.1606316,37.829851 79.1606316,35.457212 C79.1606316,33.2218703 79.7054512,31.3885848 80.7950905,29.9569994 C81.8748383,28.5447737 83.244109,27.8387943 84.9026838,27.8387943 C85.5970137,27.8387943 86.4501326,27.9858826 87.4626095,28.2800592 C88.4655013,28.5741913 89.130857,28.7212796 89.4586767,28.7212796 C89.8923703,28.7212796 90.5817982,28.5551433 91.5268291,28.2214909 C92.5104194,27.8883726 93.3444994,27.7211236 94.0291566,27.7211236 C95.1763941,27.7211236 96.2033581,28.040579 97.1098298,28.6771309 C97.6112319,29.0306769 98.1126778,29.5206745 98.6140799,30.1479249 C97.8523041,30.8051716 97.30267,31.3836892 96.9651339,31.883478 C96.3381187,32.805439 96.0250049,33.8200146 96.0250049,34.9277831 C96.0250049,36.1441433 96.3576828,37.2374478 97.0230385,38.2076076 Z" transform="rotate(14 89.234 34.428)"/>
    <path fill="#c8b9ff" d="M7.81828142,28.1157357 C7.83705619,27.5750139 7.91139895,27.0473624 8.03572555,26.5373051 C8.59497848,24.2421953 10.1720628,22.3053325 12.3035525,21.1553232 L10.9207256,18.498086 C10.8354912,18.3343198 10.8938402,18.1296005 11.0510683,18.0408685 C11.2082965,17.9519963 11.4047981,18.0129119 11.4900325,18.1766313 L12.8891972,20.8652379 C14.0797417,20.3277504 15.4169666,20.0261178 16.830135,20.0261178 C18.2327557,20.0261178 19.1130395,20.1299665 20.2968514,20.6599273 L21.8513008,18.0408685 C21.9364904,17.8771492 22.3524745,17.7910799 22.5097476,17.8799521 C22.6669308,17.9686841 22.7916097,18.3343198 22.7063752,18.498086 L21.3307746,21.1412514 C23.5668887,22.3384785 25.1971603,24.4001176 25.6905686,26.8339822 C25.7463144,27.1090607 25.7875178,27.3888141 25.8135504,27.6726816 L25.8135504,29.010732 L8.0654032,29.010732 C8.0669902,29.044234 8.06779883,29.0779444 8.06781103,29.1118448 L8.06781103,32.6408807 L8.06781103,34.3005145 L8.06781103,37.8295971 C8.06739871,38.9754456 7.15694022,39.9043263 6.03390552,39.9043263 C4.91087081,39.9043263 4.00041232,38.9754456 4,37.8295971 L4,34.3005145 L4,32.6408807 L4,29.1118448 C4.00041232,27.9659028 4.91087081,27.0371156 6.03390552,27.0371156 C6.80315312,27.0371156 7.47266273,27.4728905 7.81828142,28.1157357 Z M30.0040791,30.6340601 L30.0040791,33.6966309 L30.0040791,35.1368956 L30.0040791,38.1995069 C30.0038084,39.1938981 29.3313594,40 28.5020226,40 C27.672652,40 27.0003383,39.1938981 27.0000677,38.1995069 L27,38.1995069 L27,35.1368956 L27,33.6966309 L27,30.6340601 L27.0000677,30.6340601 C27.0003383,29.6395878 27.672652,28.833567 28.5020226,28.833567 C29.3313594,28.833567 30.0038084,29.6395878 30.0040791,30.6340601 Z M8.8976509,29.9972562 L26.0312729,29.9972562 L26.0312729,40.9293138 C26.2033961,40.9293138 24.2882188,43.0048377 23.1695364,43.0048377 L22.9747743,43.0048377 L22.9747743,44.2441868 L22.9747743,47.5016106 C22.9743162,48.6474592 22.5157382,48.9969148 21.3927493,48.9969148 C20.2697146,48.9969148 20.0161103,48.6474592 20.0156063,47.5016106 L20.0065195,44.2441868 L20.0065195,43.0048377 L16.9892878,43.0048377 L16.9892878,44.2441868 L16.9983746,47.9252708 C16.9979623,49.0711193 16.0875038,50 14.9644691,50 C13.8414344,50 12.9309759,49.0711193 12.9306094,47.9252708 L12.9306094,44.3960947 L12.9306094,43.1567456 L11.2164845,43.1567456 C10.0978479,43.1567456 8.79658556,42.2227692 8.79658556,41.0812217 L8.79658556,29.9972562 L8.8976509,29.9972562 Z M13.5142767,26.0078055 C14.3438303,26.0078055 15.0163163,25.3355774 15.0163163,24.506342 C15.0163163,23.6771066 14.3438303,23.0048784 13.5142767,23.0048784 C12.6847232,23.0048784 12.0122372,23.6771066 12.0122372,24.506342 C12.0122372,25.3355774 12.6847232,26.0078055 13.5142767,26.0078055 Z M20.5142767,26.0078055 C21.3438303,26.0078055 22.0163163,25.3355774 22.0163163,24.506342 C22.0163163,23.6771066 21.3438303,23.0048784 20.5142767,23.0048784 C19.6847232,23.0048784 19.0122372,23.6771066 19.0122372,24.506342 C19.0122372,25.3355774 19.6847232,26.0078055 20.5142767,26.0078055 Z" transform="scale(-1 1) rotate(15 0 -95.221)"/>
    <g transform="translate(19 12)">
      <use fill="#FFFFFF" xlink:href="#a"/>
      <path stroke="#7f5eff" stroke-width="3" d="M-1.5,3.00746124 C-1.5,1.16411834 -0.0821252865,-0.52420987 1.6509674,-0.800920378 C2.07530023,-0.894016174 2.84661384,-1.02671291 3.93224337,-1.15716955 C5.717494,-1.37169743 7.75099344,-1.5 10,-1.5 C12.2491144,-1.5 14.2860877,-1.37116409 16.077067,-1.15576011 C17.1659134,-1.02480279 17.9404131,-0.891631514 18.297874,-0.811670574 C20.1008684,-0.504433858 21.5,1.17210058 21.5,3.00746124 L21.5,33.9925388 C21.5,35.8358817 20.0821253,37.5242099 18.3490326,37.8009204 C17.9246998,37.8940162 17.1533862,38.0267129 16.0677566,38.1571696 C14.282506,38.3716974 12.2490066,38.5 10,38.5 C7.75088559,38.5 5.71391229,38.3711641 3.92293302,38.1557601 C2.83408659,38.0248028 2.05958686,37.8916315 1.702126,37.8116706 C-0.100868411,37.5044339 -1.5,35.8278994 -1.5,33.9925388 L-1.5,3.00746124 Z"/>
      <rect width="10" height="2" x="5" y="3" fill="#7f5eff" rx="1" opacity=".8"/>
      <rect width="16" height="26" x="2" y="7" fill="#7f5eff" opacity=".1"/>
    </g>
    <g transform="translate(38)">
      <use fill="#FFFFFF" xlink:href="#b"/>
      <path stroke="#7f5eff" stroke-width="3" d="M-1.5,2.99140827 C-1.5,0.512074017 0.520947476,-1.5 2.99921059,-1.5 L32.0007894,-1.5 C34.4856377,-1.5 36.5,0.507612064 36.5,2.99140827 L36.5,46.0085917 C36.5,48.487926 34.4790525,50.5 32.0007894,50.5 L2.99921059,50.5 C0.514362331,50.5 -1.5,48.4923879 -1.5,46.0085917 L-1.5,2.99140827 Z"/>
      <circle cx="16.5" cy="45.5" r="2.5" fill="#7f5eff" opacity=".8"/>
      <rect width="31" height="36" x="2" y="6" fill="#c8b9ff" opacity=".3"/>
    </g>
    <g transform="translate(63 13)">
      <use fill="#FFFFFF" xlink:href="#c"/>
      <path stroke="#7f5eff" stroke-width="3" d="M2,-1.5 L18,-1.5 C19.9329966,-1.5 21.5,0.0670033756 21.5,2 L21.5,34 C21.5,35.9329966 19.9329966,37.5 18,37.5 L2,37.5 C0.0670033756,37.5 -1.5,35.9329966 -1.5,34 L-1.5,2 C-1.5,0.0670033756 0.0670033756,-1.5 2,-1.5 Z"/>
      <path fill="#7f5eff" opacity=".8" d="M10,34 C8.8954305,34 8,33.1045695 8,32 C8,30.8954305 8.8954305,30 10,30 C11.1045695,30 12,30.8954305 12,32 C12,33.1045695 11.1045695,34 10,34 Z M9,3.5 C9,3.22385763 9.22788048,3 9.49100518,3 L14.5089948,3 C14.7801695,3 15,3.23193359 15,3.5 C15,3.77614237 14.7721195,4 14.5089948,4 L9.49100518,4 C9.21983051,4 9,3.76806641 9,3.5 Z M5,3.5 C5,3.22385763 5.21403503,3 5.50468445,3 L6.49531555,3 C6.77404508,3 7,3.23193359 7,3.5 C7,3.77614237 6.78596497,4 6.49531555,4 L5.50468445,4 C5.22595492,4 5,3.76806641 5,3.5 Z"/>
      <rect width="16" height="22" x="2" y="6" fill="#7f5eff" opacity=".1"/>
    </g>
  </g>
</svg>
