<?xml version="1.0" encoding="UTF-8"?>
<svg width="344px" height="40px" viewBox="0 0 344 40" version="1.1" xmlns="http://www.w3.org/2000/svg" xmlns:xlink="http://www.w3.org/1999/xlink">
    <!-- Generator: Sketch 50.2 (55047) - http://www.bohemiancoding.com/sketch -->
    <title>meltwater</title>
    <desc>Created with Sketch.</desc>
    <defs></defs>
    <g id="Page-1" stroke="none" stroke-width="1" fill="none" fill-rule="evenodd">
        <g id="meltwater" fill="#000000" fill-rule="nonzero">
            <path d="M282.875286,6.27789472 L282.875286,13.4673684 L279.096522,13.4631579 L279.092316,18.1652632 L282.87108,18.1663158 L282.87108,30.051579 C282.87108,32.8705263 283.41571,35.2473684 284.965487,36.9547368 C286.622508,38.8378947 289.052314,40.0010528 292.309579,39.9989474 C293.800477,40.0010528 295.405978,39.78 296.39956,39.448421 L295.350254,34.6947368 C294.574314,34.9178947 293.247436,35.0263158 292.475702,35.0252632 C291.095202,35.0263158 289.6022,34.5273684 288.888294,33.6421053 C288.224855,32.8705263 288.113406,31.7052632 288.113406,30.3252632 L288.117611,18.1673684 L296.401663,18.1673684 L296.401663,13.4642105 L288.117611,13.4642105 L288.117611,6.27684212 L282.875286,6.27789472 Z M194.181576,6.27263156 L194.183679,13.4578947 L202.463524,13.4589474 L202.463524,18.1621053 L194.183679,18.16 L194.179473,30.3189474 C194.179473,31.7010526 194.283562,32.8631579 194.947002,33.6336842 C195.670371,34.5221053 197.159166,35.0189474 198.538615,35.0178947 C199.311401,35.0178947 200.637227,34.9126316 201.410013,34.6842105 L202.455113,39.4410526 C201.462583,39.7736842 199.865493,39.9926316 198.372492,39.9947368 C195.111022,39.9936842 192.686472,38.8336842 191.025246,36.9505263 C189.482829,35.2410526 188.928737,32.8642105 188.928737,30.0431579 L188.929788,18.1610526 L185.149973,18.1589474 L185.149973,13.4578947 L188.929788,13.4578947 L188.928737,6.27157896 L194.181576,6.27263156 Z M136.725228,0.74 L140.594413,0.738947368 L140.586002,39.4368421 L135.064002,39.4389474 L135.07031,13.3947368 L123.746635,31.1421053 L119.880604,31.1421053 L108.561135,13.3936842 L108.559032,39.4336842 L103.034929,39.4357895 L103.041237,0.737894736 L106.906217,0.734736844 L121.808888,24.3473684 L136.725228,0.74 Z M180.403912,39.44 L175.161587,39.44 L175.167895,0.18631579 L180.408118,0.188421053 L180.403912,39.44 Z M170.339825,26.4494737 C170.339825,18.7610526 165.093294,12.9021053 157.864857,12.9031579 C150.520765,12.9010526 145.207995,18.6536842 145.207995,26.448421 C145.207995,34.2431579 151.061189,39.9894737 158.62818,39.9894737 C163.930436,39.9905263 167.629293,37.611579 169.569142,35.1242105 L166.142601,31.8663158 C164.6496,33.5273684 162.556244,35.4063158 158.688111,35.4063158 C154.159692,35.4042105 150.565976,31.9189474 150.29261,27.5547368 L170.281998,27.5568421 C170.339825,27.0589474 170.339825,26.671579 170.339825,26.4494737 Z M150.734201,23.1326316 C151.619488,19.7568421 154.659111,17.491579 158.028877,17.4936842 C161.116865,17.4947368 164.096558,19.8136842 164.877755,23.1305263 L150.734201,23.1326316 Z M269.045052,15.8463158 C266.666764,13.7978947 263.851091,12.9094737 260.918711,12.9105263 C258.489957,12.9094737 256.344031,13.5221053 254.569252,14.5652632 C250.653805,16.8852632 247.887548,21.2526316 247.887548,26.4547368 C247.887548,31.6494737 250.591772,35.9610526 254.513528,38.2810526 C256.277792,39.3326316 258.713907,39.9989474 261.032264,40 C264.118149,39.9978947 266.933822,38.9463158 269.040846,37.0736842 L269.038743,39.4473684 L274.114946,39.4452632 L274.117049,13.4663158 L269.042949,13.4673684 L269.045052,15.8463158 Z M268.876826,31.3210526 C267.099945,33.6978947 264.402029,35.0252632 261.748273,35.0231579 C256.725692,35.0242105 253.134079,31.0947368 253.134079,26.451579 C253.134079,21.9168421 256.44812,17.8831579 261.475958,17.8842105 C264.623877,17.8831579 267.270273,19.488421 268.876826,21.5842105 L268.876826,31.3210526 Z M334.144092,16.4526316 C335.413143,14.6873684 338.117367,12.9126316 341.930827,12.9105263 C342.480714,12.911579 343.363898,12.971579 343.969509,13.0810526 L343.363898,18.1105263 C342.758286,17.9452632 342.146366,17.8894737 341.32101,17.8873684 C338.610477,17.8894737 335.745388,19.768421 334.306009,22.2547368 L334.303906,39.4505263 L329.059478,39.4505263 L329.063683,13.4673684 L334.144092,13.4673684 L334.144092,16.4526316 Z M324.346011,27.5673684 C324.403839,27.0694737 324.405942,26.6831579 324.403839,26.4589474 C324.403839,18.7726316 319.157308,12.9126316 311.924665,12.911579 C304.581625,12.9105263 299.277266,18.6621053 299.279369,26.4568421 C299.275164,34.2547368 305.125203,40 312.694297,39.9978947 C317.994449,40.0010528 321.695409,37.6221053 323.625796,35.1347368 L320.206614,31.8757895 C318.715716,33.5357895 316.612898,35.4168421 312.752124,35.4168421 C308.225808,35.4147368 304.629989,31.9294737 304.357675,27.5652632 L324.346011,27.5673684 Z M304.799267,23.1421053 C305.685604,19.7663158 308.725228,17.5031579 312.090788,17.5052632 C315.185085,17.5021053 318.163727,19.8242105 318.93546,23.1410526 L304.799267,23.1421053 Z M242.484357,13.4631579 L247.891754,13.4642105 L237.341916,39.4421053 L233.693527,39.4421053 L226.411468,21.2063158 L219.1231,39.4410526 L215.472608,39.4410526 L204.931182,13.4610526 L210.342784,13.4621053 L217.46608,31.2073684 L224.591479,13.4621053 L228.234611,13.4621053 L235.35265,31.2073684 L242.484357,13.4631579 Z M46.9433096,0.71263158 C57.6193164,0.71263158 66.275567,9.3736842 66.275567,20.0642105 C66.275567,30.7536842 57.6193164,39.4168421 46.9433096,39.4168421 C36.2641482,39.4168421 27.6131548,30.7536842 27.6131548,20.0642105 C27.6131548,9.3736842 36.2641482,0.71263158 46.9433096,0.71263158 Z M46.9433096,28.3589474 C51.5190413,28.3589474 55.2294641,24.6473684 55.2294641,20.0642105 C55.2294641,15.4831579 51.5190413,11.771579 46.9433096,11.771579 C42.3654746,11.771579 38.6613607,15.4831579 38.6613607,20.0642105 C38.6613607,24.6473684 42.3654746,28.3589474 46.9433096,28.3589474 Z M82.5492757,20.9347368 C80.5442387,23.5452632 78.1238951,26.1168421 75.704603,28.5526316 C71.5021212,32.8042105 66.7371355,36.5189474 61.9395561,39.4168421 L75.9937404,39.4168421 C83.2694906,34.1642105 89.6967542,27.1136842 93.8887219,20.0642105 C89.6967542,13.0168421 83.2694906,5.9663158 75.9937404,0.71263158 L61.9395561,0.71263158 C66.7371355,3.61052632 71.5021212,7.3263158 75.704603,11.5778947 C78.1238951,14.0136842 80.5442387,16.5842105 82.5492757,19.1957895 L82.5492757,19.2031579 C82.7385292,19.44 82.8552355,19.7347368 82.8552355,20.0610526 C82.8552355,20.3863158 82.7385292,20.6821053 82.5492757,20.9178947 L82.5492757,20.9347368 Z M11.3383948,20.9347368 C13.3434317,23.5452632 15.7648267,26.1168421 18.1841188,28.5526316 C22.3844978,32.8042105 27.1515863,36.5189474 31.9491656,39.4168421 L17.8949814,39.4168421 C10.6181796,34.1642105 4.1898649,27.1136842 0,20.0642105 C4.1898649,13.0168421 10.6181796,5.9663158 17.8949814,0.71263158 L31.9491656,0.71263158 C27.1515863,3.61052632 22.3844978,7.3263158 18.1841188,11.5778947 C15.7648267,14.0136842 13.3434317,16.5842105 11.3383948,19.1957895 L11.3383948,19.2031579 C11.1491412,19.44 11.0334862,19.7347368 11.0334862,20.0610526 C11.0334862,20.3863158 11.1491412,20.6821053 11.3383948,20.9178947 L11.3383948,20.9347368 Z" id="Fill-1"></path>
        </g>
    </g>
</svg>