<?xml version="1.0" encoding="UTF-8"?>
<svg width="147px" height="50px" viewBox="0 0 147 50" version="1.1" xmlns="http://www.w3.org/2000/svg" xmlns:xlink="http://www.w3.org/1999/xlink">
    <!-- Generator: Sketch 50.2 (55047) - http://www.bohemiancoding.com/sketch -->
    <title>nyu</title>
    <desc>Created with Sketch.</desc>
    <defs></defs>
    <g id="Page-1" stroke="none" stroke-width="1" fill="none" fill-rule="evenodd">
        <g id="nyu" fill="#000000" fill-rule="nonzero">
            <g id="g3" transform="translate(62.397792, 10.220990)">
                <polygon id="path5" points="0.369218024 0.238978748 6.09209741 0.238978748 19.3839463 17.4886426 19.3839463 0.238978748 25.4760436 0.238978748 25.4760436 28.3155594 20.3069913 28.3155594 6.64592443 10.3318672 6.64592443 28.3155594 0.553827034 28.3155594 0.553827034 0.238978748"></polygon>
                <polygon id="path7" points="39.5063286 17.3051356 28.6143968 0.238978748 35.8141483 0.238978748 42.6446818 11.6164166 49.4752152 0.238978748 56.4903579 0.238978748 45.5984259 17.1216285 45.5984259 28.3155594 39.3217196 28.3155594 39.3217196 17.3051356"></polygon>
                <path d="M59.2594927,16.3876002 L59.2594927,0.238978748 L65.536199,0.238978748 L65.536199,16.2040932 C65.536199,20.7917698 67.7515074,23.1773616 71.6282967,23.1773616 C75.505086,23.1773616 77.7203938,20.9752768 77.7203938,16.3876002 L77.7203938,0.238978748 L83.9971007,0.238978748 L83.9971007,16.2040932 C83.9971007,24.6454181 79.1972661,28.8660805 71.6282967,28.8660805 C63.8747181,28.8660805 59.2594927,24.6454181 59.2594927,16.3876002 Z" id="path9"></path>
            </g>
            <path d="M49.8444412,49.546903 L0,49.546903 L0,0 L49.8444412,0 L49.8444412,49.546903 Z M23.2607403,43.8581859 C23.2607403,44.2251991 23.9991759,44.4087063 24.1837856,43.8581859 L25.8452663,30.0951573 L21.5992585,30.0951573 L23.2607403,43.8581859 Z M27.3221385,29.1776216 L27.3221385,27.1590429 L20.1223864,27.1590429 L20.1223864,29.1776216 L27.3221385,29.1776216 Z M25.2914394,26.058 C34.3372809,26.4250154 35.0757175,18.167198 35.0757175,15.0475776 C35.0757175,14.8640715 35.0757175,14.8640715 34.8911089,15.0475776 C34.7064992,15.7816061 33.4142367,17.9836909 30.0912741,19.451747 C27.3221385,20.5527888 25.4760491,23.305396 25.2914394,26.058 Z M24.3683942,25.3239725 C25.8452663,18.5342123 31.3835355,18.3507051 31.9373635,16.8826491 C32.675799,14.8640715 31.1989279,11.1939296 30.8297085,10.8269153 C30.8297085,10.8269153 30.8297085,10.8269153 30.645101,10.8269153 C29.9066644,12.4784786 28.6143998,14.1300429 27.6913556,14.8640715 C26.5837018,15.9651122 21.7838671,19.6352541 24.3683942,25.3239725 C24.1837856,25.5074797 24.3683942,25.5074797 24.3683942,25.3239725 Z M23.2607403,25.6909857 C20.1223864,19.2682398 26.3990932,15.0475776 27.3221385,14.1300429 C27.5067471,13.9465357 27.5067471,13.9465357 27.5067471,13.7630286 C27.5067471,11.744451 26.3990932,8.44132455 26.0298749,7.89080307 L25.8452663,7.89080307 C25.2914394,9.90938064 22.5223037,12.8454929 21.9684768,13.5795226 C17.168641,19.0847338 18.2762937,22.5713663 23.2607403,25.6909857 C23.2607403,25.874494 23.4453489,25.6909857 23.2607403,25.6909857 Z M21.9684768,25.874494 C16.7994227,22.7548735 17.3532485,18.5342123 19.5685584,15.4145919 L19.5685584,15.0475776 C19.5685584,14.313549 18.6455142,12.2949725 18.2762937,11.9279582 C18.2762937,11.744451 18.0916862,11.744451 18.0916862,11.9279582 C18.0916862,12.8454929 16.9840313,15.0475776 15.5071602,17.4331694 C14.030287,20.0022684 14.030287,25.874494 21.9684768,25.874494 C21.9684768,26.058 21.9684768,25.874494 21.9684768,25.874494 Z" id="path11"></path>
        </g>
    </g>
</svg>